<?xml version="1.0" encoding="UTF-8"?><svg id="Layer_2" xmlns="http://www.w3.org/2000/svg" viewBox="0 0 569.57 83.88"><defs><style>.cls-1{fill:#bcbec0;}</style></defs><g id="Layer_1-2"><g id="g4300"><path id="path4135" class="cls-1" d="m225.41,1.51l-83.96,69.21L300.3,8.7l-28.37-8.7-18.53,4.54-27.99-3.03Z"/><path id="path4137" class="cls-1" d="m187.97,55.22l133.88,14.37-8.7-45.38-12.1-14.37-113.08,45.38Z"/><path id="path4139" class="cls-1" d="m315.05,25.34l7.37,42.93,6.05-49.36-13.43,6.43Z"/><path id="path4141" class="cls-1" d="m163.76,22.69l12.1,16.83-35.36,30.82,23.26-47.65Z"/><path id="path4143" class="cls-1" d="m78.29,47.28l-4.54,29.5,29.88-43.49-25.34,13.99Z"/><path id="path4145" class="cls-1" d="m105.14,33.66l32.53,34.42,24.21-45.38-56.73,10.97Z"/><path id="path4147" class="cls-1" d="m103.63,35.93l32.9,34.42-61.27,7.19,28.37-41.6Z"/><path id="path4149" class="cls-1" d="m60.13,37.35l12.03,36.64,4.55-28.08-16.58-8.56Z"/><path id="path4151" class="cls-1" d="m26.16,48.04l44.93,28.88-12.84-39.31-32.09,10.43Z"/><path id="path4153" class="cls-1" d="m24.29,49.38L0,65.69v18.19l24.29-34.5Z"/><path id="path4159" class="cls-1" d="m331.3,19.16l42.25-5.88,28.88,60.97-71.14-55.09Z"/><path id="path4161" class="cls-1" d="m415.28,24.51l12.84,5.88,44.39.53-44.93,42.79-12.3-49.21Z"/><path id="path4165" class="cls-1" d="m375.75,15.13l27.8,57.68,11.16-48.41-9.64,2.84-29.31-12.1Z"/><path id="path4167" class="cls-1" d="m474.11,32l31.02,48.14,8.56-24.07-18.19-20.32-21.39-3.74Z"/><path id="path4169" class="cls-1" d="m516.36,58.21l-8.02,18.72s65.79-2.67,60.97-2.67-52.95-16.05-52.95-16.05h0Z"/></g></g></svg>