<?xml version="1.0" encoding="UTF-8"?><svg id="Layer_2" xmlns="http://www.w3.org/2000/svg" viewBox="0 0 140.19 40.26"><defs><style>.cls-1{fill:#28442c;}</style></defs><g id="Layer_1-2"><g><path class="cls-1" d="m2.02.24c.84,0,2.52-.08,2.9-.17.21.84.76,2.78,2.15,6.4,2.31,6.06,5.01,12.37,7.74,19.23,2.4-5.55,5.89-13.59,8.08-19.36,1.43-3.7,1.85-5.34,2.02-6.19.42.08,1.14.08,1.47.08,1.22,0,2.15-.04,2.78-.13-.63.97-2.23,3.96-3.74,7.41-2.99,6.82-7.41,16.71-10.06,22.77-.93,1.94-1.09,2.23-1.3,2.23-.25,0-.42-.42-1.09-2.1-3.07-7.7-6.27-15.15-9.34-22.81C2.02,3.57.8,1.38,0,.16c.67.08,1.85.08,2.02.08Z"/><path class="cls-1" d="m32.57,11.09c0-5.09-.13-9.34-.38-10.27.38.04,1.18.04,1.73.04,1.18,0,2.1-.08,2.4-.13-.08,1.3-.25,5.3-.25,10.35v6.31c0,4.5.08,9.3.34,10.35-.34-.04-1.14-.08-1.77-.08-.84,0-1.98.08-2.36.13.17-1.26.29-5.77.29-10.39v-6.31Z"/><path class="cls-1" d="m41.15,23c1.09,1.39,3.41,2.9,6.27,2.9,3.41,0,5.13-2.06,5.13-4.59,0-2.15-.76-3.53-3.91-5.55l-1.85-1.18c-3.91-2.52-4.92-4.88-4.92-7.41,0-3.79,2.99-6.94,8.16-6.94,1.43,0,2.78.17,3.62.34,1.01.17,1.64.25,1.94.29-.13.38-.34,2.36-.34,3.7-.67-.84-2.48-2.06-5.43-2.06-2.73,0-4.59,1.56-4.59,3.91,0,1.85.46,3.16,3.74,5.3l1.81,1.14c4.46,2.82,5.34,4.97,5.34,7.74,0,1.6-.8,4.42-3.37,6.19-1.68,1.09-3.91,1.47-5.76,1.47-2.4,0-4.88-.63-6.14-1.47.13-.55.34-2.69.29-3.79Z"/><path class="cls-1" d="m64.84,18.62c-.08,0-.17,0-.17.08-1.14,3.07-2.78,7.36-3.2,9.05-.42-.08-.76-.08-1.6-.08-.88,0-1.81.08-2.15.13.93-1.89,2.31-5.05,3.87-8.63l7.24-17.42c.5-1.09.72-1.51.93-1.51.17,0,.38.29.93,1.51.42.88,4.08,8.92,7.41,16.16,1.73,3.83,3.79,8.42,4.75,9.85-.72-.04-1.43-.08-1.85-.08-.97,0-2.15.04-2.65.13-.59-1.64-2.52-6.27-3.7-9.09q-.04-.08-.17-.08h-9.64Zm8.75-2.27c.13,0,.13-.04.13-.13l-4.29-10.06-3.87,10.06c-.04.08-.04.13.08.13h7.95Z"/><path class="cls-1" d="m88.15,17.61c0-.88-.25-1.56-.51-1.94-1.3-2.31-4.92-8.08-6.1-9.93-1.35-1.89-2.57-3.79-3.74-4.97.5.08,1.09.08,2.02.08.84,0,2.48-.04,2.78-.13.34.72,1.26,2.48,1.94,3.66.63,1.01,5.09,8.46,5.76,9.51,1.47-2.44,4.92-8.46,5.85-10.1.46-.8,1.22-2.31,1.51-3.03.38.08.93.08,1.3.08,1.22,0,2.23-.04,2.48-.13-.76.84-2.36,3.28-3.32,4.76-1.01,1.64-5.05,8.16-6.06,10.27-.29.63-.46,1.14-.46,1.89,0,4.5.17,8.58.29,10.1-.25-.08-1.01-.08-1.73-.08-.59,0-1.98.04-2.36.13.17-1.26.34-4.54.34-10.18Z"/><path class="cls-1" d="m104.47,18.62c-.08,0-.17,0-.17.08-1.14,3.07-2.78,7.36-3.2,9.05-.42-.08-.76-.08-1.6-.08-.88,0-1.81.08-2.15.13.93-1.89,2.31-5.05,3.87-8.63l7.24-17.42c.51-1.09.72-1.51.93-1.51.17,0,.38.29.93,1.51.42.88,4.08,8.92,7.41,16.16,1.73,3.83,3.79,8.42,4.75,9.85-.72-.04-1.43-.08-1.85-.08-.97,0-2.15.04-2.65.13-.59-1.64-2.52-6.27-3.7-9.09q-.04-.08-.17-.08h-9.64Zm8.75-2.27c.13,0,.13-.04.13-.13l-4.29-10.06-3.87,10.06c-.04.08-.04.13.08.13h7.95Z"/><path class="cls-1" d="m123.53,27.14c1.14,1.6,3.83,3.32,7.11,3.32,4,0,5.85-2.52,5.85-5.68,0-2.61-.93-4.29-4.54-6.73l-2.06-1.39c-4.42-2.95-5.55-5.68-5.55-8.63,0-4.38,3.32-8.04,9.09-8.04,1.64,0,3.03.21,4.04.42,1.05.17,1.85.29,2.15.34-.13.42-.34,2.61-.34,4.04-.8-.97-2.65-2.44-6.1-2.44-3.16,0-5.34,2.02-5.34,4.84,0,2.31.55,3.87,4.46,6.48l1.94,1.3c5.01,3.32,5.97,5.89,5.97,9.05,0,1.81-.72,5.09-3.66,7.15-1.85,1.26-4.21,1.81-6.35,1.81-2.69,0-5.64-.76-6.98-1.73.13-.59.38-2.95.34-4.12Z"/></g><g><path class="cls-1" d="m20.99,38.72c.3.42,1.01.87,1.87.87,1.05,0,1.54-.66,1.54-1.49,0-.69-.24-1.13-1.2-1.77l-.54-.37c-1.16-.77-1.46-1.49-1.46-2.27,0-1.15.87-2.11,2.39-2.11.43,0,.8.06,1.06.11.28.04.49.08.56.09-.03.11-.09.69-.09,1.06-.21-.25-.7-.64-1.6-.64-.83,0-1.41.53-1.41,1.27,0,.61.14,1.02,1.17,1.7l.51.34c1.32.87,1.57,1.55,1.57,2.38,0,.48-.19,1.34-.96,1.88-.49.33-1.11.48-1.67.48-.71,0-1.48-.2-1.84-.45.03-.15.1-.77.09-1.08Z"/><path class="cls-1" d="m26.04,31.67c.27.07.68.1,1.63.1h3.6c.64,0,1.45-.03,1.65-.09-.06.24-.1.63-.11.96-.18-.11-.49-.17-1.22-.21-.4-.02-.92-.04-1.76-.04v4.5c0,1.41.04,2.8.09,3.2-.11-.02-.29-.02-.45-.02-.25,0-.49.01-.68.03.06-.38.09-1.77.09-3.21v-4.5c-.51,0-.8,0-1.53.02-.73.03-1.2.08-1.48.18.06-.18.15-.69.18-.92Z"/><path class="cls-1" d="m33.97,37.16s-.04.01-.06.03c-.34.96-.85,2.38-.98,2.9-.11-.02-.21-.02-.44-.02s-.5.02-.59.03c.28-.59.7-1.56,1.14-2.63l2.19-5.43c.13-.32.19-.45.25-.45.06,0,.11.09.27.45.12.28,1.21,2.76,2.16,5,.5,1.18,1.12,2.62,1.41,3.05-.2-.01-.39-.02-.51-.02-.28,0-.59.01-.72.03-.18-.51-.79-2.01-1.16-2.91-.01-.02-.01-.03-.04-.03h-2.91Zm2.68-.64s.03-.01.02-.04l-1.31-3.22-1.21,3.22s0,.04.02.04h2.47Z"/><path class="cls-1" d="m38.35,31.67c.27.07.68.1,1.63.1h3.6c.64,0,1.45-.03,1.65-.09-.06.24-.1.63-.11.96-.18-.11-.49-.17-1.22-.21-.4-.02-.92-.04-1.76-.04v4.5c0,1.41.04,2.8.09,3.2-.11-.02-.29-.02-.45-.02-.25,0-.49.01-.68.03.06-.38.09-1.77.09-3.21v-4.5c-.51,0-.8,0-1.53.02-.73.03-1.2.08-1.48.18.06-.18.15-.69.18-.92Z"/><path class="cls-1" d="m46.31,34.95c0-1.79-.04-2.89-.11-3.2.13.02.43.02.65.02h2.46c.23,0,.69-.01.89-.06-.03.17-.09.54-.09.91-.13-.08-.35-.13-.89-.18-.33-.03-.97-.06-1.93-.06-.01,0-.04.01-.04.04v2.87s.02.06.04.06c.14,0,1.45,0,1.76-.01.58-.02.84-.06.95-.09-.06.25-.1.7-.09.92-.15-.08-.33-.12-.75-.15-.38-.02-1.67-.04-1.87-.04-.02,0-.04.02-.04.04v.8c0,2.18.02,2.49.08,2.55.03.03.15.06.25.07.25.02.59.06,1.06.06,1.05,0,1.53-.08,1.84-.23-.08.24-.17.64-.21.86-.04.01-.14.02-.56.02-1.54,0-2.37-.07-2.79-.07-.32,0-.58.01-.7.02.03-.39.09-1.64.09-3.2v-1.95Z"/><path class="cls-1" d="m54.71,31.77c.31,0,.56-.01.7-.03-.04.34-.09,1.64-.09,3.21v1.54c0,1.46.32,2.04.79,2.47.52.5,1.21.58,1.73.58s1.18-.13,1.6-.6c.56-.6.7-1.41.7-2.68v-1.31c0-1.58-.07-2.8-.12-3.2.12.02.33.02.44.02.23,0,.48-.02.53-.03-.04.34-.1,1.64-.1,3.21v1.28c0,1.29-.12,2.51-1.05,3.33-.66.59-1.52.7-2.25.7s-1.68-.19-2.28-.74c-.55-.52-.94-1.24-.94-2.83v-1.74c0-1.58-.04-2.92-.11-3.2.1.02.29.02.45.02Z"/><path class="cls-1" d="m63.7,40.07c-.11,0-.46.02-.54.03.09-.92.12-5.89.12-7.87,0-.6.02-.65.09-.65.04,0,.13.09.35.31,1.05,1.1,4.92,5.6,5.8,6.41-.02-1.79-.04-5.38-.13-6.55.1.02.29.02.43.02.2,0,.48-.02.55-.03-.06.66-.12,3.29-.12,5.53,0,.94.01,1.45.01,1.95,0,.95-.02,1.04-.09,1.04-.08,0-.28-.2-.89-.83-.91-.92-4.04-4.67-5.27-5.98.02,2.38.06,5.77.14,6.64-.15-.02-.31-.02-.46-.02Z"/><path class="cls-1" d="m72.92,34.93c0-1.57-.02-2.9-.1-3.18.1.01.33.01.46.01.31,0,.59-.02.66-.03-.03.41-.08,1.64-.08,3.21v1.95c0,1.41.03,2.88.1,3.2-.1-.01-.31-.02-.49-.02-.22,0-.54.02-.64.03.04-.38.08-1.77.08-3.21v-1.96Z"/><path class="cls-1" d="m75.59,31.77c.22,0,.66-.02.76-.04.06.22.2.73.56,1.68.61,1.59,1.32,3.25,2.04,5.06.63-1.46,1.55-3.57,2.12-5.09.38-.97.49-1.41.53-1.63.11.02.3.02.39.02.32,0,.56-.01.73-.03-.17.25-.59,1.04-.99,1.95-.79,1.79-1.95,4.39-2.65,5.99-.24.51-.29.59-.34.59-.07,0-.11-.11-.29-.55-.81-2.03-1.65-3.98-2.46-6-.42-1.06-.74-1.64-.95-1.96.18.02.49.02.53.02Z"/><path class="cls-1" d="m83.94,34.95c0-1.79-.04-2.89-.11-3.2.13.02.43.02.65.02h2.46c.23,0,.69-.01.89-.06-.03.17-.09.54-.09.91-.13-.08-.35-.13-.89-.18-.33-.03-.97-.06-1.93-.06-.01,0-.04.01-.04.04v2.87s.02.06.04.06c.14,0,1.45,0,1.76-.01.58-.02.84-.06.95-.09-.06.25-.1.7-.09.92-.15-.08-.33-.12-.75-.15-.38-.02-1.67-.04-1.87-.04-.02,0-.04.02-.04.04v.8c0,2.18.02,2.49.08,2.55.03.03.15.06.25.07.25.02.59.06,1.06.06,1.05,0,1.53-.08,1.84-.23-.08.24-.17.64-.21.86-.04.01-.14.02-.56.02-1.54,0-2.37-.07-2.79-.07-.32,0-.58.01-.7.02.03-.39.09-1.64.09-3.2v-1.95Z"/><path class="cls-1" d="m89.63,34.95c0-1.58-.02-2.83-.13-3.2.2.02.34.02.51.02.22,0,1.07-.04,1.46-.04.75,0,1.46.1,1.94.4.58.37.98,1.02.98,1.82,0,.96-.45,1.74-1.35,2.36.71.94,1.52,2.06,2.28,2.88.46.52.81.81,1.02.9-.14.06-.45.07-.72.07-.5,0-.76-.14-1.22-.62-.61-.61-1.64-2.14-2.15-2.82-.04-.06-.09-.08-.14-.08-.23.01-1.03,0-1.52-.01-.03,0-.03.02-.03.07v.34c0,1.39.04,2.59.1,3.08-.1-.02-.3-.02-.49-.02-.2,0-.53.01-.65.03.07-.38.11-1.77.11-3.21v-1.95Zm.93.91c0,.07.01.09.03.1.22.04.77.08,1.36.08.32,0,.5-.03.64-.13.44-.32.84-.9.84-1.69,0-1.17-.75-1.89-2.03-1.89-.34,0-.65.01-.81.04-.04.01-.04.03-.04.08v3.42Z"/><path class="cls-1" d="m96.7,38.72c.3.42,1.01.87,1.87.87,1.05,0,1.54-.66,1.54-1.49,0-.69-.24-1.13-1.2-1.77l-.54-.37c-1.16-.77-1.46-1.49-1.46-2.27,0-1.15.87-2.11,2.39-2.11.43,0,.8.06,1.06.11.28.04.49.08.56.09-.03.11-.09.69-.09,1.06-.21-.25-.7-.64-1.6-.64-.83,0-1.41.53-1.41,1.27,0,.61.14,1.02,1.17,1.7l.51.34c1.32.87,1.57,1.55,1.57,2.38,0,.48-.19,1.34-.96,1.88-.49.33-1.11.48-1.67.48-.71,0-1.48-.2-1.84-.45.03-.15.1-.77.09-1.08Z"/><path class="cls-1" d="m102.71,34.93c0-1.57-.02-2.9-.1-3.18.1.01.33.01.46.01.31,0,.59-.02.66-.03-.03.41-.08,1.64-.08,3.21v1.95c0,1.41.03,2.88.1,3.2-.1-.01-.31-.02-.49-.02-.22,0-.54.02-.64.03.04-.38.08-1.77.08-3.21v-1.96Z"/><path class="cls-1" d="m104.99,31.67c.27.07.68.1,1.63.1h3.6c.64,0,1.45-.03,1.65-.09-.06.24-.1.63-.11.96-.18-.11-.49-.17-1.22-.21-.4-.02-.92-.04-1.76-.04v4.5c0,1.41.04,2.8.09,3.2-.11-.02-.29-.02-.45-.02-.25,0-.49.01-.68.03.06-.38.09-1.77.09-3.21v-4.5c-.51,0-.8,0-1.53.02-.73.03-1.2.08-1.48.18.06-.18.15-.69.18-.92Z"/><path class="cls-1" d="m115.43,36.95c0-.28-.07-.48-.14-.6-.37-.68-1.54-2.65-1.86-3.13-.28-.42-.74-1.13-1.08-1.47.16.02.32.02.56.02s.68-.01.77-.03c.08.21.37.75.54,1.08.19.31,1.58,2.72,1.79,3.04.43-.75,1.52-2.67,1.78-3.18.14-.25.38-.71.45-.94.11.02.27.02.37.02.32,0,.62-.01.7-.03-.22.25-.71,1.01-.97,1.44-.32.5-1.53,2.53-1.82,3.19-.1.19-.15.35-.15.61,0,1.41.04,2.67.09,3.12-.08-.02-.29-.02-.49-.02-.14,0-.53.01-.63.03.04-.38.09-1.39.09-3.15Z"/></g></g></svg>