<?xml version="1.0" encoding="UTF-8"?><svg id="Layer_2" xmlns="http://www.w3.org/2000/svg" xmlns:xlink="http://www.w3.org/1999/xlink" viewBox="0 0 55.01 65.86"><defs><style>.cls-1{fill:none;}.cls-2{clip-path:url(#clippath);}.cls-3{fill:#122414;}.cls-4{clip-path:url(#clippath-1);}</style><clipPath id="clippath"><rect class="cls-1" width="55.01" height="65.86"/></clipPath><clipPath id="clippath-1"><rect class="cls-1" width="55.01" height="65.86"/></clipPath></defs><g id="Layer_1-2"><g class="cls-2"><g class="cls-4"><path class="cls-3" d="m35.04,20.08c.23.11.38.19.38.19-.17-.35,2.44.52,2.44.52l-.42-.79c-.81-.47-1.39-1-1.75-1.41-.19.41-.41.91-.64,1.48"/><path class="cls-3" d="m27.41,53.7l-1.04,4.18,3.66-.52s-.76-2.96-.99-3.57c0,0-.4-1.48-.23-4.09,0,0-.52,2.79-1.39,4"/><path class="cls-3" d="m23.06,34.29c-.06-.21-.12-.41-.18-.62-.47.61-1.13,1.26-2.03,1.84.24.09.47.21.71.33.02,0,.04-.02.06-.02,0,0,0,.01,0,.03.29-.45.77-1.07,1.45-1.56"/><path class="cls-3" d="m20.62,55.09s-1.39,2.96-1.22,3.66c0,0,4-.52,4.7-2.09l.7-6.44s.35-2.79.7-3.66c0,0-.17-1.91,0-2.44l.35-1.39-4.35,5.57s-.17.5,0,1.38l-.08,3.57s-.44,1.31-.79,1.84"/><path class="cls-3" d="m23.51,35.83l-.09-.3c-.38.23-.82.45-1.31.64.35.23.7.49,1.03.78.12-.37.24-.74.36-1.11"/><path class="cls-3" d="m36.54,17.82c-.16-.07-.29-.14-.39-.19-.05.1-.11.23-.19.38.18.03.34.07.5.13,0-.14.03-.25.08-.32"/><path class="cls-3" d="m32.28,47.08l1.22,9.59,3.66-.54,1.39,1.22s-2.96-6.09-2.96-8.7c0,0-1.39-2.61-1.57-3.83l-.52-5.05-1.39,1.22.17,6.09Z"/><path class="cls-3" d="m39.96,18.39c.05.08.09.17.14.25.06-.09.13-.18.19-.28-.11.01-.22.02-.33.03"/><path class="cls-3" d="m48.49.78H6.32C2.79.78-.1,3.67-.1,7.19v52.27c0,3.53,2.89,6.42,6.42,6.42h.02v-6.44l10.27-.7.35-1.57.3-4.7,1.09-3.83c-.35-4.18.52-3.48.52-3.48,0-1.3,3.49-6.64,3.95-7.33-.52-.46-1-.86-1.4-1.18-.28.88-.93,2.31-2.44,3.58,0,0-.1-2.7,1.87-4.03-.15-.12-.28-.21-.37-.28-.45.58-1.76,2.02-4.18,2.69,0,0,1.28-2.86,4.03-2.93l.24-.16c-.46,0-2.72-.06-4.91-1.77,0,0,3.41-.64,4.97,1.73l.05-.03c.1-.52.5-2.07,1.73-3.05-.21-.6-.4-1.3-.54-2.07-.19-1.05-.23-1.98-.22-2.74l-1.04-2.09c-4.87-2.44-5.22-3.83-5.22-3.83-1.04-.7-2.7-6.53-2.7-6.53-2.26-1.39-.17-3.66-.17-3.66-.7-3.83,2.44-4.35,2.44-4.35,1.83,2.52-.44,3.92-.44,3.92l-.87,1.39c.87,1.74.35,2.09.35,2.09,3.13,4.53,2.61,5.4,2.61,5.4,2.44.52,3.48,2.09,3.48,2.09,1.22-.17,2.96.7,2.96.7-.17-.35.7-.7.7-.7-1.74-1.57-.35-4.87-.35-4.87,1.57-2.09,3.31-1.22,3.31-1.22-.17-1.22,1.57-1.74,1.57-1.74,1.95-.41,2.95.29,3.47,1.15,2.16-.39,3.66,1.44,4.04,1.97h.06c.31-2.59,3.32-3.35,3.32-3.35-1.08,2.28-2.88,3.2-3.25,3.37l.25.04c.78-.34,1.55-.33,2.22-.17.26-.13.69-.05.69-.05.12.14.23.28.33.41.46.22.81.47,1.01.62,1.06-1.51,2.48-3.23,3.99-4.25-2.19-.91-3.12-2.52-3.12-2.52,1.91-.08,3.06,1.39,3.56,2.23,0-.02,0-.03,0-.03.02,0,.03.02.05.02.21-.12.42-.22.64-.31-2.23-1.53-2.76-3.63-2.76-3.63,2.22.54,2.79,2.91,2.9,3.57l.05.03c1.41-2.21,4.45-1.57,4.45-1.57-1.97,1.59-3.98,1.62-4.39,1.61l.21.15c2.45.09,3.56,2.78,3.56,2.78-2.14-.65-3.3-2.01-3.7-2.55-.09.07-.2.16-.34.26,1.74,1.26,1.63,3.78,1.63,3.78-1.33-1.2-1.9-2.54-2.14-3.37-1.17.96-3.09,2.67-4.69,4.69.76,1.65.67,2.94.67,2.94,1.57,5.22-.35,5.74-.35,5.74-1.04.87-3.83-2.96-3.83-2.96l.35,4.35c0,2.61,1.22,4.53,1.22,4.53,1.39,3.13-.52,10.1-.52,10.1-.35,2.79.87,4,.87,4,1.04.35,2.09,8.88,2.09,8.88.52,1.22.87,3.83.87,3.83l4.18,3.77v1.62h2.64c3.53,0,6.42-2.89,6.42-6.42V7.19c0-3.53-2.89-6.42-6.42-6.42"/><path class="cls-3" d="m32.27,17.16c1.22-.13,2.32.44,2.93.84-.01-.02-.02-.03-.02-.03.02,0,.04,0,.05,0,.14-.2.28-.38.44-.55-1.97-.3-3.23-1.27-3.77-1.76.26.57.34,1.15.36,1.51"/><path class="cls-3" d="m34.29,19.78c.19-.47.4-.92.64-1.32-.79.04-1.49-.04-2.06-.18l.46.61v.7c.3,0,.65.09.97.2"/><path class="cls-3" d="m37.52,18.17c-.08-.02-.16-.04-.23-.07l.56.79c-.16-.28-.26-.52-.33-.72"/></g></g></g></svg>