<?xml version="1.0" encoding="utf-8"?>
<!-- Generator: Adobe Illustrator 26.3.1, SVG Export Plug-In . SVG Version: 6.00 Build 0)  -->
<svg version="1.1" xmlns="http://www.w3.org/2000/svg" xmlns:xlink="http://www.w3.org/1999/xlink" x="0px" y="0px"
	 viewBox="0 0 799.4 799.5" style="enable-background:new 0 0 799.4 799.5;" xml:space="preserve">
<style type="text/css">
	.st0{fill:#28442C;}
	.st1{fill:#FFFFFF;}
	.st2{fill:#28442C;stroke:#FFFFFF;stroke-width:8;stroke-miterlimit:10;}
	.st3{fill:#FFFFFF;stroke:#28442C;stroke-width:3;stroke-miterlimit:10;}
	.st4{fill:#FFFFFF;stroke:#28442C;stroke-width:2;stroke-miterlimit:10;}
	.st5{stroke:#FFFFFF;stroke-width:8;stroke-miterlimit:10;}
	.st6{fill:#FFFFFF;stroke:#000000;stroke-width:3;stroke-miterlimit:10;}
	.st7{fill:#FFFFFF;stroke:#000000;stroke-width:2;stroke-miterlimit:10;}
	.st8{fill:#3A793A;}
	.st9{fill:#DDE7DC;}
	.st10{fill:#7AA579;}
	.st11{fill:#598E57;}
	.st12{fill:#85AB83;}
	.st13{fill:#528A50;}
	.st14{fill:#B7CDB6;}
	.st15{fill:#D0DECE;}
	.st16{fill:#BAD0B9;}
	.st17{fill:#010101;}
	.st18{fill:#020202;}
	.st19{fill:#040505;}
	.st20{fill:#636161;}
	.st21{fill:#615E5F;}
	.st22{fill:#6D6C6D;}
	.st23{fill:#636162;}
	.st24{fill:#757373;}
	.st25{fill:#444243;}
	.st26{fill:#656565;}
	.st27{fill:#505050;}
	.st28{fill:#FDFEFF;}
	.st29{fill:#FBFCFC;}
	.st30{fill:#F5F6F6;}
	.st31{fill:#F6F6F6;}
	.st32{fill:#F7F8F8;}
	.st33{fill:#E5E5E5;}
	.st34{fill:#242323;}
	.st35{fill:#3F3D3E;}
	.st36{fill:#28442C;stroke:#FFFFFF;stroke-miterlimit:10;}
	.st37{fill:#010101;stroke:#FFFFFF;stroke-miterlimit:10;}
	.st38{fill:#FDDD32;}
	.st39{fill:none;}
	.st40{display:none;}
	.st41{display:inline;}
	.st42{font-family:'RobotoCondensed-Regular';}
	.st43{font-size:38px;}
</style>
<g id="Layer_2">
	<circle class="st0" cx="399.7" cy="399.7" r="399.7"/>
	<path class="st1" d="M399.8,781C187.9,780.7,17.8,608.9,18.5,398.7C19.2,187.5,190.6,17.3,401.6,18.2
		c209.9,0.9,379.9,171.9,379.6,382.1C780.8,610.4,610.3,780.9,399.8,781z"/>
	<path class="st0" d="M399.8,770C194.8,769.8,29.1,604,29.4,399.4C29.7,194.7,195.7,29.1,400.1,29.4
		c204.6,0.4,370.2,166.3,369.8,370.6C769.5,604.7,604,770.1,399.8,770z"/>
	<path class="st1" d="M40.4,399.6C40.5,201.6,201.8,40.3,400,40.4c197.8,0.1,359.1,161.5,359,359.3
		C758.9,597.7,597.5,759.1,399.8,759C201.6,758.9,40.3,597.7,40.4,399.6z"/>
	<path class="st0" d="M638.6,399.7c0,131.9-107.1,239.1-238.8,238.9c-132.1-0.1-239-107-239-239c0-131.9,107.1-238.9,239.1-238.8
		C531.7,160.9,638.5,267.8,638.6,399.7z"/>
	<path class="st1" d="M173.1,399.7c0-125.2,101.5-226.6,226.9-226.7c125,0,226.4,101.6,226.3,226.7c0,125.2-101.5,226.6-226.5,226.5
		C274.5,626.2,173.1,524.9,173.1,399.7z"/>
	<path class="st0" d="M399.9,609.7c-116,0-210.2-94.1-210.2-210c0-116,94.2-210.3,210.2-210.3c116,0,210.1,94.3,210.1,210.4
		C609.9,515.7,515.8,609.7,399.9,609.7z"/>
</g>
<g id="Layer_1">
	<path class="st17" d="M659.3,381.2c1.1,0.7,2.4,1.3,3.5,2.1c1.1,0.8,1.7,0.7,2.5-0.5c1.6-2.4,3.7-4.4,6.1-6
		c0.9-0.6,1.2-1.1,0.5-2.2c-0.8-1.3-2.6-2.7-2-4.1c0.4-1.1,2.4-1.7,3.7-2.5c3.8-2.3,3.9-2.3,5.9,1.6c0.7,1.4,1.3,1.6,2.7,1
		c3.3-1.4,3.4-1.3,3.3-5c-0.1-1.9,0.5-2.8,2.3-3.2c1.1-0.2,2.1-0.8,3.2-1.1c0.7-0.2,1.6-1,2,0.5c0,0.2,0.8,0.2,1.3,0.2
		c1.7,0,3.3,0.1,5,0c1.3-0.1,1.7,0.4,1.5,1.6c-0.1,0.8,0.1,1.6,0,2.4c-0.4,2.2,0.8,2.8,2.6,2.6c1.1-0.1,2.1-0.2,3.2-0.3
		c1.2-0.1,2.9-1.3,2.8,1.5c0,0.8,1.3,0.9,2.1,1.2c0.8,0.3,0.9-0.6,1.2-1c1-1.3,1.3-3.7,2.7-3.9c1.2-0.2,2.7,1.4,4.1,2.2
		c3.6,2.2,3.7,2.2,1.4,5.9c-0.7,1.1-0.9,1.8,0.4,2.7c2.3,1.6,4.4,3.7,6,6.1c0.6,0.8,1,1.2,2.1,0.5c1.4-0.8,2.9-2.6,4.2-2.1
		c1.2,0.5,1.7,2.6,2.5,3.9c2,3.5,2,3.6-1.6,5.5c-1.3,0.7-1.7,1.3-1,2.7c1.2,2.5,1.8,5.2,2.1,7.9c0.1,1.2,0.5,1.9,1.8,1.6
		c0.1,0,0.1,0,0.2,0c4.7,0,4.7,0,4.7,4.6c0,4.7,0,4.7-4.6,4.7c-1.4,0-2,0.3-2.1,1.8c-0.2,2.9-1.1,5.6-2.2,8.3
		c-0.4,0.9-0.3,1.5,0.7,1.9c0.1,0,0.1,0.1,0.2,0.1c1.2,0.9,3.4,1,3.6,2.4c0.2,1.1-1.2,2.6-1.9,3.8c-2.2,4-2.3,4-6.1,1.6
		c-1.3-0.8-1.9-0.6-2.7,0.6c-1.5,2.4-3.7,4.2-5.9,5.9c-0.9,0.7-1.2,1.2-0.5,2.2c0.9,1.2,2.3,2.8,2.1,3.9c-0.3,1.3-2.5,1.8-3.8,2.5
		c-3.7,2.2-3.8,2.2-6-1.7c-0.7-1.3-1.3-1.5-2.6-0.9c-2.5,1.2-5.3,1.9-8.1,2.1c-1.3,0.1-1.5,0.6-1.5,1.7c0,1.5,0.5,3.6-0.3,4.4
		c-1,1.1-3.1,0.3-4.8,0.4c-4,0.1-4.2,0-4-4c0.1-1.9-0.5-2.5-2.3-2.6c-2.7-0.2-5.2-1-7.6-2.1c-1-0.5-1.5-0.2-2,0.7
		c-0.8,1.3-1,3.5-2.5,3.7c-1.2,0.1-2.7-1.3-4-2c-3.7-2.1-3.8-2.1-1.5-5.7c0.9-1.4,0.8-2.1-0.6-3c-2.3-1.6-4.2-3.6-5.9-6
		c-0.6-0.9-1.1-1.1-2-0.4c-0.7,0.6-1.7,0.9-2.4,1.5c-1.5,1.3-2.2,0.7-2.9-0.8c-0.9-1.7-1.9-3.3-3-5c-0.5-0.8-0.6-1.3,0.4-1.8
		c1.5-0.7,3.7-1.1,4.1-2.5c0.4-1.2-0.8-3-1.3-4.5c-0.5-1.7-0.9-3.5-1.1-5.3c-0.1-1-0.5-1.5-1.5-1.3c-0.3,0-0.5,0-0.8,0
		c-4.3,0-4.3,0-4.3-4.4c0-1.6-0.7-3.6,0.3-4.6c0.9-0.9,2.9-0.3,4.4-0.3c1.2,0,1.8-0.3,1.9-1.6c0.2-2.9,1-5.6,2.1-8.3
		c0.5-1.1,0.5-1.7-0.7-2.1c-0.1,0-0.1,0-0.2-0.1c-1.3-0.8-3.5-1.1-3.7-2.3c-0.2-1.2,1.3-2.6,2-3.9c0.6-1,1.1-2,1.7-2.9
		C658.5,381.7,658.6,381.2,659.3,381.2z"/>
	<path class="st17" d="M104.5,457.5c-5.5,0-10.9-0.1-16.4,0c-2.5,0-4.9-0.6-7.1-1.7c-4.3-2-6.2-6.5-4.8-11c0.7-2.2,1.8-4.1,3.1-6
		c3.5-5.2,7-10.4,10.5-15.6c0.6-0.9,0.9-1.8,0.9-3c0-6.3-0.1-12.5,0-18.8c0-1.5-0.4-2.1-1.9-1.8c-2.2,0.4-2.6-0.6-2.5-2.6
		c0.1-4.6,0-4.6,4.7-4.6c1.7,0,3.5,0,5.2,0c1,0,1.4,0.2,1.4,1.3c0,9.6,0,19.2,0,28.8c0,1.4-0.6,2.7-1.4,3.9
		c-3.8,5.5-7.6,11.1-11.3,16.7c-0.4,0.7-0.9,1.3-1.3,2c-1.6,2.9-0.9,4.2,2.3,4.8c0.1,0,0.3,0,0.4,0c12.1,0,24.3,0.2,36.4-0.1
		c4.1-0.1,4.4-2,2.5-4.9c-4-6.2-8.2-12.3-12.3-18.5c-1-1.4-1.4-3-1.4-4.7c0-9.2,0-18.4,0-27.6c0-1.4,0.3-1.9,1.7-1.8
		c2.7,0.1,5.3,0.1,8,0c1.3,0,1.7,0.4,1.5,1.6c-0.1,0.7,0,1.3,0,2c0,3.3,0,3.4-3.2,3.6c-0.9,0.1-1.1,0.4-1.1,1.2c0,6.7,0,13.5,0,20.2
		c0,0.8,0.4,1.4,0.8,2c3.9,5.8,7.7,11.7,11.5,17.5c1,1.5,1.8,3,2.3,4.6c1.3,4.4-0.6,8.5-4.7,10.5c-2.3,1.1-4.8,1.9-7.5,1.8
		C115.4,457.4,110,457.5,104.5,457.5z"/>
	<path class="st38" d="M105.7,361.3c-4.7,0-9.3,0-14,0c-3.6,0-4.5-0.9-4.5-4.4c0-2.8,0-5.6,0-8.4c0-1.2,0.3-1.7,1.5-1.7
		c3.5,0.1,6.9,0,10.4,0c2.6,0,4.1,1.8,5.3,3.7c0.9,1.5,1.2,3.2,1.3,5C105.7,357.5,105.7,359.4,105.7,361.3L105.7,361.3z"/>
	<path class="st18" d="M103.9,375.3c1.5,2,2.1,4.3,2.2,6.7c0.1,3.2,0.1,6.4,0.1,9.6c0,14.1,0,28.2,0,42.4c0,0.5,0,1.1,0,1.6
		c0,0.6-0.4,0.8-0.9,0.8c-0.6,0-0.9-0.2-0.9-0.8c0-0.5,0-1.1,0-1.6c0-14.1,0-28.2,0-42.4c0-1.6-0.4-2.2-2.1-2.1
		c-4.3,0.1-8.7,0.1-13,0.1c-3.7,0-5.3-1.6-5.3-5.3c0-3.6,0.1-7.2,0-10.8c0-1.4,0.4-1.7,1.7-1.7c4.2,0.1,8.4,0,12.6,0
		c1.3,0,2.5,0.3,3.4,1.3C102.3,373.9,103.3,374.4,103.9,375.3z"/>
	<path class="st19" d="M103.9,375.3c-1-0.4-1.8-1.1-2.1-2.2c0.5,0.3,1,0.6,1.8,1.2c0-4.6-0.6-9.2,2.2-13c0,0,0,0,0,0
		c2.4-2.4,5.4-3.1,8.7-2.9c2.5,0.2,5.1,0.1,7.6,0c1.5-0.1,2,0.3,1.9,1.8c-0.1,3.2,0,6.4,0,9.6c0,3.7-1.4,5.1-5.1,5
		c-4.4,0-8.8-0.1-13.2-0.1C105,374.9,104.3,374.5,103.9,375.3z"/>
	<path class="st20" d="M703.9,357.2c-4.9-1.8-9.8-2.3-14.7,0.2c-0.8,0.4-1.3,0.4-1.3-0.6c0-1.9,0-3.7,0-5.6c0-0.7,0.3-1.1,0.9-1.4
		c5-3,14-1.9,18.2,2.3c-0.4,1.5-0.1,3.1-0.2,4.6c0,0.7,0,1.5-1.1,0.9c-0.2-0.4-0.1-0.9-0.1-1.4c0.1-4,0.1-4-3.6-5.6
		c-3.6-1.6-7.4-1.7-11.1-0.3c-1.6,0.6-2.5,3.3-1.7,4.7c0.4,0.8,1,0.4,1.6,0.2c3.7-1.3,7.5-1.1,11.2,0c0.8,0.2,1.7,0.4,2.2,1.2
		C704.4,356.9,704.2,357.1,703.9,357.2z"/>
	<path class="st21" d="M705.9,357.4c1.2,0.4,0.7-0.6,0.8-1c0.2-1.4-0.4-2.9,0.4-4.3c0,1.2,0.2,2.5,0.1,3.7c-0.1,1.4,0.3,1.8,1.6,1.1
		c0.5-0.3,1.1-0.3,1.7-0.5c0.4-0.1,0.8-0.3,1.1,0.2c-0.4,1.2-1.5,1.1-2.4,1.5c-1.3,0.6-2.3,3.8-1.5,5c0.3,0.4,0.6,0.2,0.9,0.1
		c0.7-0.2,1.4-0.5,2.1-0.4c0.4,0.1,0.8,0.2,0.8,0.8c-1.2,0.5-2.5,0.8-3.7,1.5c-1.3,0.8-1.4,0.1-1.4-0.9c0-0.9-0.1-1.9,0-2.8
		c0.4-2.2-0.4-3.6-2.5-4.1c0.2-0.1,0.4-0.3,0.5-0.4C705.1,356.5,705.6,356.7,705.9,357.4z"/>
	<path class="st21" d="M711.5,356.8c-0.3-0.3-0.6-0.3-1-0.4c4.1-1.5,8-0.4,11.8,1.3c0,0.6-0.5,0.6-0.9,0.7
		C718.1,357.4,714.8,357.1,711.5,356.8z"/>
	<path class="st22" d="M711.4,363.6c-0.3-0.1-0.6-0.3-0.9-0.4c0.2-0.7,0.8-0.8,1.4-0.9c2.9-0.6,5.7-0.5,8.3,1
		c0.3,0.8-0.5,0.5-0.8,0.8C716.8,363.4,714.1,363.2,711.4,363.6z"/>
	<path class="st23" d="M719.5,364.1c0.2-0.3,0.5-0.4,0.9-0.4c0.8-0.6,1.5,0,2.2,0.2c0.6,0.2,1.1,0.7,1.8,0.2
		c0.2-0.2,0.4-0.4,0.6-0.5c0.2-0.1,0.3,0,0.5,0.1c0.1,3,0.1,2.9-2.5,1.8C721.8,364.9,720.6,364.5,719.5,364.1z"/>
	<path class="st24" d="M725.1,363.7c-0.1,0.1-0.2,0.3-0.3,0.4c-0.5-2.3-1.2-4.5-3.3-6c0.3-0.1,0.5-0.2,0.8-0.3
		c1.2,0.5,2.4,0.9,3.2,1.9C724.9,361,725.6,362.4,725.1,363.7z"/>
	<path class="st25" d="M725.1,363.7c0.1-1.3-0.3-2.7,0.4-4c0,1.3,0,2.6,0,4l-0.2,0L725.1,363.7z"/>
	<path class="st26" d="M623.9,568c0.3-0.2,0.7,0,0.8-0.4c0.4,0.1,0.8,0.4,0.5,0.8C624.8,568.7,624.3,568.4,623.9,568z"/>
	<path class="st27" d="M646.3,192.6c0.3,0.1,0.5,0.3,0.8,0.4c-0.5,0.4-1.1,0.7-1.5,0.3C645.4,193.1,645.9,192.7,646.3,192.6z"/>
	<path class="st38" d="M690.7,380.1c0,4.9,0.1,9.7,0,14.6c0,1.6,0.4,1.8,1.9,1.5c1.4-0.4,3.3-1.4,4.3-0.5c0.9,0.8,0.2,2.8,0.3,4.2
		c0,0.3,0,0.5,0,0.8c0,3.7,0,3.6,3.7,3.7c1.6,0,1.9-0.7,1.9-2c0-2.9,0.1-5.9,0.1-8.8c0.1-7.1,0.1-14.1,0.2-21.2
		c0-0.6-0.4-1.5,0.5-1.7c1.1-0.3,2.4-0.7,3.5-0.3c0.6,0.2,0.3,1.1,0.3,1.6c0,8.9,0.1,17.9,0,26.8c0,1.8,0.2,2.5,2.2,1.9
		c3.1-0.9,6.4-1.4,9.5-2.2c1.2-0.3,1.7-0.1,1.9,1.1c0.6,4.1,1.3,8.2,2,12.2c0.2,0.9,0,1.4-1.1,1.3c-3.5,0-6.9-0.1-10.4,0
		c-1.2,0-1.2-0.6-1.2-1.5c-0.1-3.3-0.1-3.3-3.5-3.3c-0.4,0-0.8,0-1.2,0c-1.3,0-2.8-0.4-3.7,0.2c-1,0.7-0.3,2.3-0.4,3.6
		c0,1-0.4,1.3-1.3,1.2c-2.8,0-5.6,0-8.4,0c-0.9,0-1.4-0.3-1.3-1.3c0-0.1,0-0.1,0-0.2c-0.2-1.6,0.8-4.1-0.4-4.7
		c-1.6-0.9-3.9-0.4-5.9-0.5c-0.7,0-1,0.3-1,1c0,0.2,0,0.4,0,0.6c-0.1,1.5,0.6,3.3-0.3,4.3c-1,1-2.9,0.3-4.4,0.3c-3,0.1-6,0-9,0
		c-1.2,0-1.6-0.4-1.6-1.6c0.1-1.9,0.1-3.9,0-5.8c-0.1-1.2,0.4-1.6,1.5-1.9c5.4-1.6,10.8-3.3,16.2-4.9c1.3-0.4,1.6-1,1.6-2.2
		c0-9.9,0-19.7-0.1-29.6c0-1.7,0.5-2.5,2.1-3c1.2-0.4,1.4-0.2,1.4,1C690.7,369.9,690.7,375,690.7,380.1z"/>
	<path class="st1" d="M685.4,387.3c0,2.5-0.1,5.1,0,7.6c0.1,1.4-0.4,2.1-1.8,2.5c-5.3,1.5-10.6,3.2-15.9,4.7
		c-1.2,0.4-1.7,0.9-1.7,2.2c0.1,2.6,0,5.2,0,7.8c0,0.7,0.3,1.5-0.9,1.6c-1.2,0.1-1.1-0.8-1.2-1.5c-1.1-8.9,1-16.9,6.5-24
		c3.5-4.5,7.9-7.9,13.1-10.2c1.3-0.6,1.9-0.6,1.8,1.1C685.3,381.8,685.4,384.5,685.4,387.3z"/>
	<path class="st1" d="M709.2,388.3c0-2.8,0.1-5.6,0-8.4c0-1.5,0.3-1.8,1.6-1c10.1,5.5,16.1,13.9,17.5,25.4c0.3,2.8,0.2,5.6-0.1,8.4
		c-0.1,1-0.4,1.5-1.6,1.5c-1.2,0-1.6-0.4-1.8-1.5c-0.7-5-1.4-9.9-2-14.8c-0.2-1.3-0.4-1.8-1.9-1.5c-3.2,0.8-6.5,1.2-9.8,2
		c-1.7,0.4-1.9-0.1-1.8-1.6C709.2,393.9,709.2,391.1,709.2,388.3z"/>
	<path class="st28" d="M700.9,389c0,3.9,0,7.7,0,11.6c0,0.7,0.4,1.8-0.9,1.8c-1.6,0-0.9-1.2-0.9-1.9c-0.1-2-0.1-4,0-6
		c0.1-1.3-0.4-1.4-1.5-1.2c-1.5,0.3-3.6,1.4-4.6,0.6c-1.1-0.9-0.3-3.1-0.4-4.7c-0.1-4,0-8-0.1-12c0-1.4,0.5-1.8,1.8-1.9
		c6.7-0.4,6.7-0.4,6.7,6.2c0,2.5,0,4.9,0,7.4C701,389,701,389,700.9,389z"/>
	<path class="st1" d="M687.2,429.7c2,0,4,0.1,6,0c1.3-0.1,1.6,0.4,1.5,1.6c-0.1,2.4-0.1,4.8,0,7.2c0,1.3-0.2,1.8-1.6,1.6
		c-5.6-0.6-10.7-2.4-15.4-5.6c-0.8-0.6-1-0.9-0.4-1.8c1.4-2.2,3.1-3.4,5.9-2.9C684.6,429.8,685.9,429.7,687.2,429.7z"/>
	<path class="st28" d="M703.1,429.7c0.5,0,0.9,0,1.4,0c5.4,0,5.4,0,8,4.8c0.5,0.9,0.4,1.2-0.5,1.7c-4.4,2.4-9.1,3.7-14.1,4
		c-0.9,0-1.3-0.2-1.3-1.2c0-2.7,0-5.3,0-8c0-0.9,0.3-1.3,1.3-1.3C699.6,429.7,701.3,429.7,703.1,429.7z"/>
	<path class="st28" d="M706.5,421.1c6.3,0,12.1,0,17.9,0c1,0,1.2,0.3,0.7,1.2c-0.9,1.5-1.8,3-2.6,4.5c-0.5,0.8-1.2,1.1-2.1,1.1
		c-2.9-0.1-5.7,0-8.6,0c-0.7,0-1.3,0-1.7-0.7C709,425.2,707.9,423.3,706.5,421.1z"/>
	<path class="st28" d="M684.1,421.1c-1.7,2.2-3,4-4.4,5.8c-1.2,1.5-8.6,1.3-9.7-0.2c-1.2-1.7-2.3-3.4-3-5.3c0.6-0.4,1.1-0.3,1.6-0.3
		C673.5,421.1,678.6,421.1,684.1,421.1z"/>
	<path class="st28" d="M688.1,415.6c-1.4,3-3.3,3.9-6.1,3.7c-4.8-0.3-9.6-0.1-14.4-0.1c-1.6,0-3-1.7-2.8-3.2
		c0.1-0.6,0.5-0.5,0.9-0.5C673.1,415.6,680.4,415.6,688.1,415.6z"/>
	<path class="st29" d="M703.7,416c7.6,0,15.2,0,22.7,0c0.4,0,1.1,0,0.8,0.7c-0.4,0.9,0,2.3-1.4,2.5c-0.7,0.1-1.5,0-2.2,0
		c-5,0-10-0.2-15,0.1C706,419.4,704.4,418.6,703.7,416z"/>
	<path class="st28" d="M681.4,427.8c1.8-2.3,3.2-4.2,4.6-6.1c0.3-0.4,0.7-0.6,1.2-0.6c2.2,0,4.4,0,6.6,0c0.7,0,1,0.3,0.9,0.9
		c0,0.1,0,0.1,0,0.2c0.4,5.6,0.4,5.6-5.1,5.6C687.1,427.8,684.5,427.8,681.4,427.8z"/>
	<path class="st28" d="M708.4,427.8c-3.9,0-7.4,0-10.9,0c-0.6,0-0.9-0.2-0.9-0.8c0-0.2,0-0.4,0-0.6c0.1-1.7-0.8-4.3,0.4-4.9
		c2-1,4.6-0.3,7-0.3c0.2,0,0.5,0.2,0.6,0.4C705.9,423.5,707,425.5,708.4,427.8z"/>
	<path class="st30" d="M711.7,429.7c2.9,0,5.4,0,8.4,0c-1.6,1.8-3.2,3.1-4.8,4.4c-0.5,0.3-0.7,0.1-0.9-0.3
		C713.4,432.5,712.6,431.3,711.7,429.7z"/>
	<path class="st31" d="M703,419.3c-1.8,0-3.6,0-5.4,0c-1.4,0-1.1-0.9-1-1.6c0.1-0.7-0.5-1.8,1-1.9
		C700.8,415.3,701.7,415.8,703,419.3z"/>
	<path class="st32" d="M688.2,419.3c1.3-2.1,2.3-4,5.2-3.6c1.5,0.2,1.3,0.9,1.3,1.8c0,0.8,0.4,1.9-1.2,1.8
		C691.8,419.2,690.1,419.3,688.2,419.3z"/>
	<path class="st33" d="M677.1,429.9c-2,3-2.1,3-4.4-0.1C674.2,429.6,675.6,429.5,677.1,429.9z"/>
	<path class="st34" d="M684.8,413.7c1.5-0.5,2.5-0.5,4,0C687.4,414.2,686.4,414.2,684.8,413.7z"/>
	<path class="st35" d="M707.9,413.8c-1.3,0.5-2.7,0.2-4,0C705.2,413.8,706.6,413.8,707.9,413.8z"/>
	<path class="st0" d="M95.8,387.7c-2.4,0-4.8,0-7.2,0c-1.7,0-2.6-0.8-2.6-2.6c0-3.3,0-6.5,0-9.8c0-1.2,0.3-1.7,1.6-1.6
		c3.5,0.1,6.9,0,10.4,0c2.9,0.1,5.4,2.7,6,6.5c0.3,1.8,0.5,3.7,0.5,5.6c0,1.4-0.3,2-1.9,1.9C100.3,387.6,98,387.7,95.8,387.7
		C95.8,387.7,95.8,387.7,95.8,387.7z"/>
	<path class="st0" d="M113.2,372.9c-2.1,0-4.3,0-6.4,0c-0.6,0-1.4,0.2-1.4-0.7c-0.1-3.7-0.5-7.5,2.7-10.4c1-0.9,2-1.4,3.4-1.4
		c3,0.1,6,0.1,9,0c1.2,0,1.7,0.3,1.6,1.6c-0.1,2.9,0,5.9,0,8.8c0,1.4-0.7,2.1-2.1,2.1C117.7,372.9,115.5,372.9,113.2,372.9
		C113.2,372.9,113.2,372.9,113.2,372.9z"/>
	<path class="st1" d="M705.9,357.4c-0.5-0.2-1-0.4-1.5-0.6c-4.6-2.2-9.3-2.6-14.1-0.7c-1.2,0.5-1.7,0.4-1.6-1c0-0.2,0-0.4,0-0.6
		c0-4.4,0-4.4,4.3-5.3c4.6-1,8.7,0.3,12.6,2.6c0.3,0.2,0.7,0.5,0.7,0.7C706.2,354.1,707,355.8,705.9,357.4z"/>
	<path class="st28" d="M721.4,358.1c3,0.9,3.8,3.1,3.3,6c-0.1,0.7,0,1.4-1.1,0.8c-1-0.5-2.1-1.1-3.3-1.3c-3.2-1.2-6.5-1.6-9.8-0.4
		c-1.1,0.3-2.1,0.7-3.3,1.1c0-1.7,0-3.3,0-4.9c0-1,0.7-1.4,1.5-1.6c0.9-0.4,1.9-0.6,2.8-1C714.9,356.1,718.2,356.9,721.4,358.1z"/>
</g>
<g id="Layer_4">
	<g>
		<circle class="st39" cx="399.8" cy="400.3" r="359.1"/>
		<g>
			<g>
				<path d="M158.3,466.1c3.9,13.3,8.2,26.3,13.8,39c-0.9,0.4-1.4,0.7-2.4,1.1c-0.3-0.7-0.5-1.1-0.8-1.9c-1.2-2.8-2.4-4.6-3.5-5.4
					c-1.1-0.8-2.4-1.1-3.9-1.1c-1.4,0.1-4.7,1.1-9.7,3.1c-14.4,5.8-28.7,11.7-43.1,17.5c-7.9,3.2-12.8,6-14.8,8.3
					c-2,2.4-3.3,5.4-3.7,9.2c-0.4,3.7,0.4,7.9,2.5,12.4c2.4,5.1,5.6,8.9,9.4,11.3c3.8,2.4,8,3.3,12.4,3c4.4-0.4,11-3.2,19.7-8.2
					c11.2-6.5,22.4-13,33.5-19.5c3.7-2.1,6.1-4,7.4-5.5c1.2-1.5,1.9-3,2-4.3c0.1-2-0.5-4.4-1.9-7.2c0.9-0.5,1.4-0.7,2.3-1.2
					c4.8,9.4,7.3,13.9,12.9,22.5c-0.9,0.6-1.3,0.9-2.2,1.4c-0.3-0.5-0.5-0.8-0.8-1.3c-1.1-1.8-2.5-3-4.1-3.6
					c-1.6-0.6-3.6-0.6-5.7-0.1c-1.5,0.4-4,1.5-7.3,3.5c-10.3,6.2-20.6,12.5-30.9,18.7c-9.6,5.8-16.8,9.4-21.8,10.6
					c-5,1.2-10.8,0.3-17.4-3.2c-6.5-3.5-12.4-10.3-16.9-20.5c-3.8-8.5-5.4-15.8-5.2-21.5c0.3-7.7,2.4-13.7,5.9-17.8
					c3.5-4.2,9.1-7.4,16.6-9.8c14.7-4.7,29.5-9.4,44.2-14.1c5.2-1.7,8.3-3,9.5-3.9c1.1-0.9,1.8-2.1,2.2-3.6c0.4-1.5,0.1-3.9-0.9-7.3
					C156.8,466.5,157.3,466.4,158.3,466.1z"/>
				<path d="M206.9,561.6c-7.9,22.5-12.6,45.5-15.7,69.2c9.2-10.1,18.4-20.3,27.5-30.4c3.8-4.2,6-7.5,6.4-9.9c0.6-3.1-0.6-6-3.4-8.7
					c0.7-0.7,1.1-1.1,1.8-1.9c6.6,6.5,10.1,9.6,17.2,15.4c-0.7,0.8-1,1.2-1.6,2c-2.6-1.5-4.6-2.3-5.9-2.3c-1.3,0-2.8,0.4-4.5,1.4
					c-1.7,1-4,3.2-7,6.6c-17.5,19.9-35,39.8-52.4,59.7c-0.7-0.6-1.1-1-1.8-1.6c1.9-33.5,7.6-65.4,18.1-97.3
					c-16,12.3-32.1,24.5-48.1,36.8c-4.4,3.3-6.5,6.6-6.5,9.8c0.1,3.2,1.1,6.2,3.2,8.8c0.6,0.7,0.9,1.1,1.5,1.8c-0.8,0.7-1.2,1-2,1.7
					c-7.5-9.2-14.5-18.7-21-28.7c0.9-0.6,1.3-0.9,2.2-1.5c3.1,4.6,6.2,7.1,9.1,7.7c2.9,0.5,6.4-0.8,10.5-3.8
					c18-13.3,36-26.7,54.1-40c0.4-1.1,0.7-1.7,1.1-2.8c1.1-2.8,1.7-4.9,1.6-6.4c0-1.5-0.6-3.1-1.8-5.1c0.9-0.6,1.3-0.9,2.2-1.5
					C197.3,549.6,200.4,553.7,206.9,561.6z"/>
				<path d="M226.1,697.4c-0.5,0.9-0.8,1.3-1.3,2.2c-14.4-8.1-28.1-17.6-41-27.7c0.6-0.8,1-1.2,1.6-2c1,0.8,1.5,1.2,2.5,1.9
					c2.2,1.7,4.3,2.6,6.2,2.8c1.3,0.2,2.8-0.2,4.2-1.1c1-0.6,3-2.8,5.9-6.7c12.4-16.9,24.8-33.7,37.2-50.6c2.9-3.9,4.5-6.5,4.9-7.7
					c0.4-1.2,0.4-2.5,0-3.9c-0.4-1.4-1.3-2.7-2.9-3.9c-0.7-0.6-1.1-0.9-1.8-1.4c0.6-0.8,1-1.2,1.6-2c9.4,7.4,19.4,14.2,29.8,20.1
					c-0.5,0.9-0.8,1.3-1.3,2.2c-0.8-0.5-1.2-0.7-2-1.1c-1.7-1-3.4-1.4-4.9-1.2c-1.1,0.1-2.3,0.7-3.6,1.7c-0.9,0.7-2.7,3.1-5.3,7.2
					c-11.2,17.6-22.5,35.2-33.7,52.9c-2.6,4.1-4,6.8-4.3,8.1c-0.2,1.3,0.1,2.8,0.9,4.3c0.8,1.6,2.4,3,4.6,4.4
					C224.5,696.5,225,696.8,226.1,697.4z"/>
				<path d="M341.7,644.2c-0.2,1-0.4,1.5-0.6,2.5c-2.6,0-5.2,1.2-7.9,3.8c-2,1.9-5.5,6.7-10.9,14.1c-15.7,21.2-32.6,40.7-51.3,59.4
					c-0.9-0.3-1.3-0.5-2.1-0.8c-0.1-27.1,1.6-53.6,5.4-80.4c1.5-9.5,2.4-15.1,2.3-16.9c-0.1-1.9-1.2-3.6-3.3-5.3
					c0.5-0.9,0.8-1.4,1.3-2.3c9.7,5.2,19.3,9.8,29.4,14.1c-0.4,1-0.6,1.4-1,2.4c-0.4-0.2-0.6-0.2-1-0.4c-2.8-1.1-4.8-1.4-6.2-0.9
					c-1,0.3-1.8,1.1-2.4,2.3c-0.3,0.8-0.6,1.7-0.9,2.9c-0.2,1.2-0.6,4.3-1.1,9.6c-1.5,16.6-2.3,33.3-2,50
					c10-11.3,19.5-22.9,28.7-34.9c3.2-4.4,5.2-7.3,6-8.9c0.9-1.5,1.5-2.9,1.8-4.1c0.4-1.3,0.5-2.6,0.3-3.8c-0.2-1.2-0.7-2.2-1.6-3
					c-1.2-1.2-2.9-2.1-5.1-2.8c0.3-1,0.5-1.5,0.8-2.5C328.7,641,333,642.2,341.7,644.2z"/>
				<path d="M368,654.3c-1.6,12.8-3.2,25.5-4.9,38.3c0.6,0.1,0.9,0.1,1.6,0.2c5,0.6,8.9-1,11.4-4.6c2.5-3.6,4.3-9.1,5.4-16.4
					c0.8,0.1,1.2,0.1,2.1,0.1c-1,16.5-2,33-3.1,49.6c-1-0.1-1.5-0.1-2.4-0.2c-0.1-5.4-0.9-9.9-2.2-13.5c-1.3-3.6-2.9-6-4.8-7.4
					c-1.9-1.4-4.8-2.2-8.6-2.7c-1.3,10.6-2,15.9-3.4,26.5c-0.7,5.2-0.9,8.4-0.6,9.6c0.3,1.2,0.9,2.3,2,3.1c1.1,0.9,2.9,1.4,5.5,1.7
					c2.2,0.2,3.3,0.3,5.5,0.5c8.5,0.7,15.6-1.1,20.7-5.1c5.2-4,8.8-10.3,10.8-18.7c0.9,0,1.4,0,2.3,0c-1.1,10.1-2.3,20.1-3.7,30.2
					c-27.2-0.4-53.3-3.2-79.9-8.6c0.2-1,0.4-1.5,0.6-2.5c1.2,0.3,1.8,0.4,3,0.7c2.6,0.6,4.9,0.5,6.6-0.1c1.3-0.4,2.4-1.4,3.3-2.8
					c0.7-1,1.5-3.9,2.4-8.5c4-20.4,7.9-40.9,11.9-61.3c0.8-4.2,1.2-6.8,1.3-7.8c0-1.6-0.4-3-1.1-4.1c-1-1.5-2.6-2.5-4.8-3
					c-0.9-0.2-1.3-0.3-2.2-0.5c0.2-1,0.4-1.5,0.6-2.5c18.8,3.7,37.1,5.7,56.2,6.3c0,9.3-0.1,18.7-0.1,28c-0.8,0-1.3,0-2.1,0
					c-1-6.9-2.4-11.8-4.1-14.8c-1.8-3-4.2-5.3-7.4-6.9c-1.9-0.9-5.4-1.6-10.6-2C372.3,654.8,370.8,654.6,368,654.3z"/>
				<path d="M441.6,699.7c1.4,10.5,2.2,15.8,3.6,26.3c0.7,5.1,1.4,8.2,2.2,9.5s2,2.1,3.6,2.7c1.6,0.6,4.6,0.5,8.7-0.1
					c0.2,1,0.3,1.5,0.4,2.6c-15.7,2.7-31.6,4.2-47.4,4.8c0-1-0.1-1.6-0.1-2.6c4.3-0.1,7.1-0.7,8.6-1.6c1.5-0.9,2.5-2,3-3.4
					c0.5-1.3,0.6-4.6,0.2-9.7c-1.5-20.5-3-40.9-4.5-61.4c-0.4-5.1-0.8-8.3-1.4-9.6c-0.6-1.3-1.4-2.3-2.6-3s-3.3-1-6.5-0.9
					c0-1-0.1-1.6-0.1-2.6c10.4-0.3,21-1.3,31.3-2.9c8.1-1.3,14.1-1.7,18.2-1c4.1,0.7,7.9,2.8,11.4,6.2c3.6,3.5,6.2,7.9,7.8,13.4
					c2,6.7,1.7,12.9-1.2,18.3c-1.9,3.5-5,6.5-9.6,9c8.9,9.2,18.3,17.9,28.1,26.1c3.9,3.2,6.7,5.1,8.1,5.7c2.2,0.8,4.5,1,6.9,0.3
					c0.3,1,0.5,1.5,0.8,2.5c-9.3,3.1-18.8,5.7-28.3,7.9c-12.8-11.7-24.9-23.8-36.2-37.1C444.8,699.3,443.7,699.5,441.6,699.7z
					 M435.2,653.6c1.9,13.7,3.8,27.5,5.7,41.2c1.3-0.2,2-0.3,3.3-0.5c5.4-0.8,9.4-2.1,11.8-3.7c2.4-1.7,4.1-4.2,4.9-7.5
					c0.8-3.3,0.7-7.4-0.4-12.3c-1.6-7.1-4-12-7.2-14.9c-3.2-2.9-7.4-3.9-12.8-3C438.5,653.2,437.4,653.3,435.2,653.6z"/>
				<path d="M522,618.2c5.3,9.2,10.6,18.3,16,27.4c-0.8,0.4-1.2,0.7-2,1.1c-4.8-6.5-10.1-10.9-15.9-13.4c-5.8-2.5-10.5-3-14.6-1.2
					c-3.2,1.4-5.2,3.6-6.1,6.7c-0.9,3.1-0.8,6.2,0.4,9.3c0.8,2,1.8,3.6,3.2,4.8c1.8,1.7,4.2,3.1,7.3,4.1c2.2,0.8,7,1.8,14.6,2.6
					c10.6,1.1,18.8,2.6,24.1,5.2c5.3,2.6,9.6,6.6,12.8,12c4,6.9,5,14.3,2.4,22.1c-2.6,7.9-8.3,14-16.9,17.9
					c-2.7,1.2-5.4,2.1-8.1,2.5c-2.7,0.5-6.2,0.7-10.5,0.5c-2.4-0.1-4.2,0.1-5.6,0.6c-1.1,0.4-2.1,1.3-3,2.6c-0.9,1.3-1.5,3-1.6,5.1
					c-1,0.3-1.5,0.5-2.4,0.8c-4-11.3-7.9-22.6-11.9-33.9c0.9-0.3,1.3-0.4,2.2-0.7c5.1,8.9,11.3,14.9,18.5,17.9
					c7.2,2.9,14,3,20.1,0.3c4.7-2.1,7.8-5.2,9.2-9c1.4-3.9,1.2-7.5-0.6-10.9c-1-2-2.5-3.7-4.5-5c-1.9-1.4-4.3-2.4-7.2-3.2
					c-2.8-0.7-7.4-1.3-13.6-1.9c-8.7-0.8-15.1-2.3-19.2-4c-4.1-1.7-7.5-4-10.4-6.9c-2.8-2.9-4.9-6.5-6.4-10.7
					c-2.5-7.1-2.6-13.9-0.7-20.3c1.9-6.4,5.5-10.6,11-13c2-0.9,4.1-1.4,6.3-1.6c1.7-0.2,3.8,0,6.6,0.3c2.7,0.3,4.5,0.3,5.3-0.1
					c0.8-0.4,1.2-1.1,1.3-2c0.1-0.9-0.4-2.7-1.3-5.4C521.2,618.6,521.5,618.4,522,618.2z"/>
				<path d="M619.8,666.3c0.7,0.8,1,1.2,1.7,2c-12.7,10.6-26.5,20-40.6,28.5c-0.5-0.9-0.8-1.3-1.4-2.2c1.1-0.6,1.6-1,2.7-1.6
					c2.3-1.4,3.9-3,4.8-4.7c0.6-1.2,0.8-2.7,0.5-4.3c-0.2-1.2-1.6-3.8-4.3-7.8c-11.5-17.4-23.1-34.9-34.6-52.3
					c-2.7-4.1-4.5-6.5-5.5-7.3c-1-0.8-2.2-1.3-3.7-1.4c-1.5-0.2-3,0.3-4.7,1.3c-0.8,0.5-1.2,0.7-2,1.2c-0.5-0.9-0.8-1.3-1.4-2.2
					c10.3-6.1,20.2-13.1,29.5-20.7c0.7,0.8,1,1.2,1.7,2c-0.7,0.6-1.1,0.9-1.8,1.5c-1.6,1.3-2.5,2.7-2.9,4.2c-0.3,1.1-0.2,2.4,0.4,4
					c0.4,1.1,2,3.6,4.9,7.4c12.7,16.6,25.3,33.3,38,49.9c3,3.9,5,6.2,6.2,6.8c1.2,0.6,2.6,0.9,4.4,0.6c1.8-0.2,3.7-1.2,5.8-2.8
					C618.4,667.5,618.8,667.1,619.8,666.3z"/>
				<path d="M607,544c8.5,5.9,12.7,8.8,21.1,14.7c-0.5,0.7-0.7,1.1-1.2,1.8c-5.6-2.4-9.8-3.8-12.8-4.1c-2.9-0.3-5.8,0-8.5,1.1
					c-1.5,0.6-3.3,2.3-5.4,5c-1.4,1.7-2.1,2.6-3.5,4.2c18.7,15.9,37.4,31.7,56.1,47.6c3.7,3.2,6.2,4.9,7.5,5.3
					c1.3,0.4,2.8,0.2,4.5-0.4c1.7-0.7,3.5-2.1,5.2-4.3c0.8-1,1.2-1.6,2-2.6c0.8,0.6,1.2,1,2,1.6c-10.7,13.5-21.8,26.3-34.2,38.2
					c-0.7-0.8-1.1-1.1-1.8-1.9c0.9-0.9,1.4-1.3,2.3-2.2c2-1.9,3.2-3.9,3.7-5.8c0.4-1.3,0.3-2.8-0.4-4.4c-0.5-1.1-2.4-3.4-5.8-6.7
					c-17.6-17.1-35.2-34.2-52.7-51.3c-1.4,1.5-2.2,2.2-3.7,3.7c-3.4,3.4-5.1,6.8-4.9,10.3c0.3,4.9,2.3,10.3,6.3,16.2
					c-0.7,0.6-1,0.8-1.6,1.4c-6.7-7.8-10.1-11.8-16.8-19.6C580.6,577.1,594.4,561.7,607,544z"/>
				<path d="M642.4,466.1c1,0.3,1.5,0.4,2.5,0.7c-0.3,2.8,0,5,0.9,6.9c1.3,2.5,5.5,7.2,12.2,14.4c8.9,9.8,17.3,20.2,25.2,30.9
					c8.5,3.6,12.7,5.3,21.2,8.9c4.5,1.9,7.4,2.8,8.7,2.7c1.3-0.1,2.7-0.7,4.2-2c1.5-1.3,2.7-3.2,3.7-6c0.8-2.3,1.3-3.4,2.1-5.8
					c1,0.4,1.5,0.5,2.4,0.9c-7,18.8-14.7,37.2-24.5,54.7c-0.9-0.5-1.4-0.8-2.3-1.3c1-1.9,1.6-2.8,2.6-4.8c1.4-2.7,2.1-5.1,2.1-7.1
					c0-1.5-0.5-2.9-1.6-4.4c-0.8-1-3.2-2.6-7.5-4.8c-6.8-3.5-10.2-5.2-17-8.7c-15.2,0.2-30.1-0.3-45.3-1.7c-8.8-0.9-14.1-1.4-16-0.9
					c-2,0.5-3.6,1.7-4.9,3.6c-0.9-0.6-1.3-0.9-2.2-1.5c6.6-10.1,12.5-20.6,17.6-31.5c0.9,0.5,1.4,0.7,2.3,1.1
					c-0.3,0.6-0.4,0.9-0.7,1.5c-1,2-1.3,3.6-1,4.8c0.3,1.2,0.8,2,1.6,2.4c1.5,0.8,5.9,1.4,13.4,1.5c11.7,0.2,23.4-0.2,35-1.3
					c-6.7-8.9-13.5-17.4-20.7-25.8c-5.3-6.1-9.1-9.3-11.3-10.1c-1.2-0.4-2.4-0.2-3.5,0.5c-1.5,0.9-3,3-4.5,6.3
					c-1-0.4-1.5-0.6-2.4-0.9C638.2,480.6,639.7,475.8,642.4,466.1z"/>
			</g>
		</g>
		<g>
			<g>
				<path d="M103.7,218.2c0.9,0.6,1.3,0.8,2.2,1.4c-1.3,3.2-1.2,6.8,0.2,10.7c1,2.8,4.4,8.1,10.3,15.5c16.5,20.4,34,39.2,53.2,57.1
					c-0.3,0.6-0.4,1-0.7,1.6c-27.1-2.1-53.4-2-80.5,0.4c-9.9,1-15.8,2.2-17.7,3.2c-1.9,0.9-3.6,3.3-5.1,7c-1-0.3-1.5-0.4-2.5-0.7
					c4.2-15.6,9.2-31.1,15.4-46.1c1,0.4,1.4,0.6,2.4,1c-0.2,0.6-0.4,0.9-0.6,1.5c-1.6,3.9-2.1,6.9-1.7,8.7c0.3,1.3,1,2.2,2.3,2.7
					c0.8,0.3,1.8,0.5,3,0.5c1.2,0.1,4.5-0.1,9.9-0.2c16.8-0.3,33.8,0.1,50.5,1.8c-10.6-11-20.7-22.2-30.5-33.9
					c-3.5-4.3-5.9-7.1-7.2-8.4c-1.3-1.3-2.5-2.2-3.5-2.8c-1.2-0.7-2.5-1-3.8-0.8c-1.3,0.1-2.5,0.7-3.7,1.7c-1.6,1.4-3.2,3.6-4.7,6.6
					c-0.9-0.5-1.4-0.7-2.3-1.2C93.3,236.2,98.3,227,103.7,218.2z"/>
				<path d="M200.5,241.4c0.8,0.7,1.2,1,2,1.6c-7.3,9.1-13.9,18.8-19.9,28.9c-0.9-0.5-1.3-0.8-2.2-1.4c0.5-0.8,0.7-1.2,1.2-2
					c1-1.7,1.5-3.3,1.3-4.9c-0.1-1.1-0.7-2.3-1.7-3.6c-0.7-0.9-3.1-2.7-7.1-5.4c-17.5-11.5-34.9-23.1-52.4-34.6
					c-4.1-2.7-6.7-4.2-8-4.4c-1.3-0.3-2.7,0-4.3,0.8c-1.6,0.8-3,2.3-4.4,4.5c-0.6,1.1-1,1.6-1.6,2.7c-0.9-0.5-1.3-0.8-2.2-1.4
					c8.2-13.8,17.2-27.2,27.3-39.7c0.8,0.7,1.2,1,2,1.6c-0.7,0.9-1.1,1.4-1.9,2.3c-1.6,2.1-2.5,4-2.7,5.9c-0.2,1.3,0.2,2.7,1.1,4.2
					c0.6,1.1,2.8,3,6.6,5.9c16.7,12.6,33.4,25.2,50.1,37.9c3.9,2.9,6.4,4.6,7.6,5.1c1.2,0.4,2.5,0.5,3.9,0.1
					c1.4-0.3,2.7-1.2,3.8-2.7C199.7,242.4,200,242.1,200.5,241.4z"/>
				<path d="M166.7,139.4c7.2,7.8,14.4,15.6,21.6,23.5c-0.7,0.6-1.1,1-1.8,1.6c-6.2-5.2-12.6-8-19.5-8.3c-6.8-0.3-12.3,1.8-16.3,5.9
					c-3.1,3.2-4.5,6.7-4.3,10.3c0.2,3.6,1.5,6.5,4,8.8c1.6,1.4,3.3,2.3,5.1,2.8c2.4,0.6,5.3,0.6,8.7,0.2c2.4-0.3,7.4-1.7,14.9-3.6
					c10.5-2.7,18.5-2.8,24-1.1c5.5,1.7,10.2,5,14.3,9.8c5.2,6.1,7.9,12.8,8.5,19.9c0.7,7.1-1.2,12.8-5.7,17.4
					c-1.4,1.4-2.9,2.6-4.6,3.5c-1.7,0.9-4.1,1.8-7.2,2.8c-1.7,0.5-2.9,1.2-3.6,2c-0.6,0.6-0.8,1.6-0.7,3c0.1,1.3,0.7,2.8,1.8,4.5
					c-0.5,0.6-0.7,0.8-1.1,1.4c-9.3-7.6-18.6-15.3-27.9-22.9c0.5-0.6,0.8-1,1.3-1.6c8.8,5.2,16.6,8,23.3,8.3
					c6.8,0.4,11.6-1,14.9-4.3c2.5-2.6,3.5-5.6,3.1-9.1c-0.4-3.6-1.9-6.8-4.5-9.6c-1.5-1.7-3.3-3-5.4-3.9c-2.1-0.9-4.4-1.5-7.1-1.6
					c-2.6-0.1-6.7,0.4-12.2,1.8c-7.7,1.9-13.8,3.3-18.1,3.6c-4.3,0.4-8.4,0.1-12.3-1c-3.9-1-7.7-2.9-11.1-5.8
					c-5.9-4.8-9.3-10.9-10.1-18.4c-0.7-7.4,1.7-14.3,7.2-20.1c2-2.1,4.3-3.8,6.7-5.2c1.9-1,4.4-2.1,7.5-3c3.2-0.9,5.2-1.7,6-2.5
					c0.8-0.8,1.2-1.6,1.2-2.6c0-1-0.8-2.7-2.3-5.3C165.8,140.2,166.1,139.9,166.7,139.4z"/>
				<path d="M250.6,164.8c-8.4,5.1-12.5,7.9-20.4,13.8c1.3,3.7,2,5.5,3.3,9.1c1.2,3,2.4,5.3,3.6,6.9c1.6,2.1,3.4,3.2,5.4,3.3
					c1.1,0.1,3.1-0.7,6.1-2.4c0.6,0.8,0.9,1.3,1.5,2.1c-6.8,4.9-10.2,7.5-16.6,13.1c-0.7-0.8-1-1.2-1.7-2c1.4-1.9,2-4.2,1.6-7
					c-0.3-2.8-1.9-7.7-4.6-14.8c-9.1-25.6-16.3-51.3-21.8-77.9c0.4-0.3,0.6-0.4,1-0.7c22.6,16.4,43.7,34.1,63.8,53.5
					c5.5,5.5,9.3,8.8,11.4,9.9c1.6,0.8,3.3,0.9,5.2,0.3c0.5,0.9,0.7,1.4,1.1,2.3c-9.1,4.2-18.1,9.1-26.6,14.5
					c-0.6-0.9-0.8-1.3-1.4-2.2c0.4-0.3,0.6-0.4,1.1-0.7c2.1-1.3,3.3-2.6,3.6-4c0.2-1,0-2.1-0.8-3.3c-0.4-0.7-1-1.4-1.6-2.1
					c-0.3-0.3-1.6-1.6-4-3.8C256.2,169.8,254.4,168.1,250.6,164.8z M246.3,161.4c-9-7.4-18.1-14.4-27.5-21.4
					c3,11.3,6.2,22.3,9.7,33.4C235.5,168.3,239,165.9,246.3,161.4z"/>
				<path d="M316.9,64.9c0.2,1,0.4,1.5,0.6,2.5c-2.6,1-4.5,2.5-5.5,4.2c-1.5,2.4-3.3,8.4-4.9,18c-2.3,12.5-4,25.1-5,37.7
					c3.1,8.7,4.6,13,7.7,21.7c1.6,4.6,2.8,7.5,3.6,8.5c0.7,1,1.7,1.8,3,2.3c1.3,0.5,2.7,0.6,4.3,0.1c1.3-0.4,2-0.6,3.4-1
					c0.3,1,0.5,1.5,0.8,2.5c-11.2,3.6-21.8,7.6-32.7,12.2c-0.4-0.9-0.7-1.4-1.1-2.4c1.2-0.5,1.8-0.8,3-1.3c1.7-0.7,2.9-1.8,3.5-3.1
					c0.5-0.9,0.6-2.2,0.4-3.8c-0.1-1.2-1.1-4-3-8.4c-3-7-4.5-10.6-7.4-17.6c-10.8-10.4-21.8-20.3-33.3-29.9
					c-7-5.6-11.7-8.6-13.8-9.1c-2.1-0.5-4.4-0.2-6.8,1.1c-0.5-0.9-0.8-1.4-1.3-2.3c12.1-6.4,24.6-12.2,37.3-17.1
					c0.4,1,0.6,1.4,1,2.4c-0.7,0.3-1,0.4-1.7,0.7c-2.3,0.9-3.7,1.9-4.3,3c-0.6,1.1-0.7,2.1-0.4,2.9c0.7,1.5,3.9,4.8,9.5,9.9
					c8.4,8,16.5,16.1,24.5,24.5c0.8-10.5,2.1-21.1,3.9-31.5c1.3-7.7,1.8-12.7,1.2-14.9c-0.4-1.2-1.2-2.1-2.5-2.6
					c-1.7-0.7-4.4-0.7-8.1,0.2c-0.3-1-0.5-1.5-0.8-2.5C301.7,68.7,306.8,67.3,316.9,64.9z"/>
				<path d="M360.7,125.9c-9.6,1.3-14.4,2.2-23.9,4.3c-0.3,3.9-0.4,5.8-0.6,9.6c-0.2,3.2,0,5.8,0.5,7.7c0.6,2.6,1.8,4.3,3.5,5.2
					c1,0.5,3.1,0.6,6.4,0.3c0.2,1,0.3,1.5,0.5,2.5c-8.1,1.7-12.1,2.6-20,4.9c-0.3-1-0.4-1.5-0.7-2.5c2-1.1,3.4-3,4.2-5.6
					c0.8-2.6,1.3-7.7,1.7-15.3c1.9-26.9,5.7-53.2,11.3-79.6c0.5-0.1,0.7-0.1,1.2-0.2c13.9,24,25.9,48.6,36.2,74.4
					c2.8,7.2,4.9,11.8,6.3,13.6c1.1,1.4,2.6,2.2,4.6,2.3c0,1,0.1,1.6,0.1,2.6c-9.9,0.3-20.1,1.1-29.9,2.6c-0.2-1-0.2-1.5-0.4-2.6
					c0.5-0.1,0.7-0.1,1.2-0.2c2.4-0.3,4-1.1,4.9-2.2c0.6-0.8,0.8-1.9,0.6-3.3c-0.1-0.8-0.3-1.7-0.6-2.5c-0.1-0.4-0.8-2.1-2.1-5
					C363.9,132.7,362.8,130.4,360.7,125.9z M358.3,121c-5.2-10.3-10.6-20.5-16.3-30.6c-1.8,11.4-3.3,22.8-4.5,34.3
					C345.7,122.9,349.9,122.2,358.3,121z"/>
				<path d="M442.7,55.5c-1,10.5-2.1,21-3.2,31.5c-0.9-0.1-1.4-0.2-2.3-0.3c-0.2-8-2.3-14.7-6.4-19.9c-4.2-5.2-9.1-8-14.6-8.2
					c-4.2-0.2-7.6,1-10.1,3.5c-2.5,2.5-3.7,5.4-3.7,8.8c0,2.1,0.4,4,1.2,5.6c1.1,2.2,2.9,4.4,5.3,6.6c1.8,1.6,5.9,4.4,12,8.7
					c8.6,6,13.8,11.8,16.1,17c2.3,5.1,2.9,10.9,2.1,17.1c-1.1,7.9-4.2,14.3-9,19.6c-4.8,5.2-10,7.6-16.2,7.3
					c-1.9-0.1-3.7-0.5-5.5-1.1c-1.7-0.7-3.9-1.9-6.5-3.5c-1.5-0.9-2.7-1.4-3.7-1.4c-0.8,0-1.7,0.5-2.5,1.4c-0.9,1-1.6,2.4-2.1,4.3
					c-0.7,0-1,0-1.7,0c-0.4-12-0.8-23.9-1.2-35.9c0.8,0,1.1,0,1.9-0.1c1.8,10,4.7,17.7,8.7,23c4,5.3,8,8.1,12.5,8.3
					c3.4,0.2,6.3-1.1,8.6-3.7c2.3-2.7,3.7-5.9,4.1-9.6c0.2-2.2,0-4.4-0.6-6.6c-0.7-2.2-1.8-4.3-3.4-6.3c-1.6-2-4.6-4.7-9-7.9
					c-6.3-4.5-11-8.2-14-11.1c-2.9-3-5.3-6.3-7-9.9c-1.7-3.6-2.7-7.7-2.8-12.1c-0.3-7.6,1.9-14.1,6.7-19.5c4.8-5.4,11.2-8,18.9-7.7
					c2.8,0.1,5.5,0.6,8,1.5c1.9,0.7,4.3,1.9,6.9,3.6c2.7,1.7,4.5,2.7,5.6,2.8c1.1,0.1,2-0.2,2.7-0.9c0.7-0.7,1.5-2.4,2.4-5.2
					C441.5,55.3,441.9,55.4,442.7,55.5z"/>
				<path d="M527.7,75.8c-3.6,10-7.2,19.9-10.9,29.8c-0.9-0.3-1.3-0.5-2.2-0.8c1.8-7.8,1.4-14.8-1.4-20.9
					c-2.8-6.1-6.9-9.9-12.2-11.5c-4.1-1.2-7.7-0.8-10.7,1c-3,1.8-4.9,4.4-5.8,7.6c-0.5,2-0.6,4-0.2,5.7c0.5,2.4,1.7,5,3.5,7.7
					c1.3,2,4.6,5.7,9.5,11.3c6.9,7.9,10.5,14.8,11.5,20.4c1,5.6,0.2,11.3-2.2,17.1c-3,7.4-7.7,12.9-13.6,16.8
					c-5.9,3.9-11.7,5-17.6,3.2c-1.9-0.6-3.5-1.4-5-2.4c-1.5-1-3.3-2.7-5.4-5c-1.2-1.3-2.3-2-3.2-2.2c-0.8-0.2-1.7,0.1-2.8,0.8
					c-1.1,0.7-2.1,2-3.1,3.7c-0.7-0.1-1-0.2-1.6-0.3c2.6-11.7,5.1-23.4,7.7-35.1c0.8,0.2,1.1,0.2,1.9,0.4
					c-0.7,10.2,0.2,18.3,2.8,24.4c2.5,6.1,5.8,9.7,10.1,11c3.3,1,6.4,0.5,9.3-1.6c2.9-2,5.1-4.8,6.3-8.4c0.8-2.1,1.1-4.3,1-6.6
					c-0.1-2.3-0.7-4.6-1.8-6.9c-1.1-2.3-3.3-5.7-6.8-9.9c-5-5.9-8.7-10.5-10.8-14.1s-3.6-7.3-4.4-11.3c-0.8-3.9-0.7-8.1,0.2-12.4
					c1.6-7.4,5.3-13.3,11.3-17.3c6-4.1,12.9-5.1,20.3-3c2.7,0.8,5.2,1.9,7.4,3.4c1.7,1.1,3.7,2.8,5.9,5.2c2.2,2.3,3.8,3.7,4.8,4.1
					c1,0.4,1.9,0.3,2.8-0.2c0.9-0.5,2-2,3.6-4.5C526.7,75.4,527,75.6,527.7,75.8z"/>
				<path d="M601.9,117c-5.9,8.5-8.9,12.7-14.9,21.2c-0.7-0.5-1.1-0.7-1.8-1.2c2.3-5.6,3.6-10,3.7-13c0.1-3-0.6-6-2.1-8.8
					c-0.9-1.6-3-3.4-6.4-5.4c-2.2-1.3-3.3-1.9-5.5-3.2c-12.4,21.2-24.8,42.4-37.3,63.5c-2.5,4.2-3.9,6.9-4.2,8.2
					c-0.3,1.2-0.2,2.5,0.2,3.8c0.4,1.3,1.4,2.4,3,3.4c0.7,0.4,1.1,0.7,1.8,1.1c-0.6,0.9-0.8,1.3-1.4,2.2
					c-9.5-5.6-18.9-10.6-28.9-15.4c0.4-0.9,0.7-1.4,1.1-2.4c0.8,0.3,1.1,0.5,1.9,0.9c1.7,0.8,3.2,1,4.7,0.6c1-0.2,2.1-1,3.3-2.2
					c0.8-0.9,2.3-3.4,4.5-7.7c11.1-21.9,22.3-43.7,33.4-65.6c-2.2-1.1-3.3-1.6-5.5-2.7c-5.1-2.4-9.5-2.8-12.9-1.4
					c-4.8,2.1-9,6.2-12.5,12.4c-0.8-0.3-1.2-0.5-2.1-0.8c3.9-9.5,5.9-14.3,9.8-23.9C558,90.6,580.2,102.5,601.9,117z"/>
				<path d="M588.8,193.5c-7.5-6.7-11.3-9.8-19.3-15.7c-3.2,2.3-4.7,3.4-7.9,5.8c-2.6,2-4.5,3.8-5.6,5.4c-1.6,2.2-2.1,4.2-1.7,6.1
					c0.2,1.1,1.6,2.8,4,5.1c-0.6,0.8-1,1.2-1.6,2.1c-6.7-5.1-10.2-7.6-17.2-12.1c0.6-0.9,0.9-1.3,1.4-2.2c2.2,0.8,4.6,0.7,7.1-0.4
					c2.6-1.1,6.8-4,12.9-8.6c22.1-16,44.9-30.1,69.1-42.8c0.4,0.3,0.6,0.5,0.9,0.8c-9.3,26.4-20.2,51.7-33.1,76.6
					c-3.7,6.9-5.8,11.5-6.2,13.9c-0.3,1.8,0.1,3.5,1.3,5.2c-0.8,0.7-1.2,1-1.9,1.7c-6.8-7.8-14.3-15.4-22.1-22.1
					c0.7-0.8,1-1.2,1.7-2c0.4,0.3,0.6,0.5,1,0.9c1.9,1.7,3.5,2.5,5,2.4c1-0.1,2-0.6,3-1.7c0.6-0.6,1.1-1.4,1.6-2.1
					c0.2-0.4,1.1-2,2.5-4.9C585.7,200.3,586.7,198.1,588.8,193.5z M590.9,188.4c4.5-10.8,8.7-21.5,12.7-32.4
					c-10,6-19.8,12.2-29.5,18.7C581,179.9,584.4,182.6,590.9,188.4z"/>
				<path d="M702.6,227.8c-8.9,5.2-13.4,7.8-22.3,13c-0.5-0.8-0.7-1.2-1.2-2c4.4-4.2,7.3-7.8,8.6-10.7c1.3-2.9,1.9-6,1.5-9.5
					c-0.2-1.9-1.4-4.7-3.8-8.3c-1.5-2.3-2.3-3.4-3.8-5.6c-20,14.2-40,28.4-60,42.6c-4,2.8-6.4,4.7-7.1,5.8s-1.2,2.3-1.3,3.7
					c-0.1,1.5,0.3,3,1.4,4.6c0.5,0.8,0.7,1.1,1.2,1.9c-0.9,0.6-1.3,0.9-2.2,1.4c-6.6-9.8-13.3-18.9-20.7-28.1c0.8-0.7,1.2-1,2-1.7
					c0.6,0.7,0.9,1,1.4,1.7c1.2,1.5,2.6,2.4,4.1,2.7c1,0.2,2.3,0.1,3.9-0.5c1.1-0.4,3.5-2.1,7.2-5.1c19.1-15.4,38.2-30.9,57.3-46.3
					c-1.6-2-2.4-3-4.1-5c-3.8-4.6-7.7-7-11.5-7.2c-5.3-0.2-10.8,1.8-16.6,5.9c-0.6-0.7-1-1-1.6-1.7c7.5-7.2,11.2-10.7,18.7-17.9
					C672.6,182,688.6,203.8,702.6,227.8z"/>
				<path d="M713.5,261.9c-11.8,5.3-23.5,10.7-35.3,16c0.3,0.6,0.4,0.9,0.7,1.6c2.2,5,5.4,8,9.8,8.9c4.4,1,10.2,0.5,17.4-1.5
					c0.4,1,0.6,1.5,0.9,2.5c-15.5,5.8-31.1,11.6-46.6,17.5c-0.3-0.8-0.5-1.3-0.8-2.1c4.9-2.4,8.7-4.9,11.3-7.7
					c2.6-2.7,4.1-5.4,4.4-7.8c0.3-2.4-0.3-5.5-1.9-9.2c-9.8,4.4-14.6,6.7-24.4,11.1c-4.8,2.2-7.6,3.7-8.5,4.5
					c-0.9,0.8-1.5,1.8-1.9,3s-0.1,2.7,0.7,4.7c0.7,1.6,1,2.5,1.6,4.1c2.5,6.5,6.3,11.1,11.5,14c5.3,2.9,12.2,4.2,20.8,3.9
					c0.3,0.9,0.4,1.3,0.6,2.2c-10,1.5-20,3.1-30,4.9c-6.3-19.8-13.7-39.2-24.1-57.3c0.9-0.5,1.3-0.8,2.2-1.3c0.5,0.8,0.7,1.2,1.1,2
					c1,1.8,2.2,3,3.6,3.6c1,0.5,2.3,0.5,3.9,0.2c1.1-0.2,3.9-1.4,8.1-3.7c18.4-9.9,36.8-19.8,55.2-29.7c3.8-2,6.1-3.4,6.8-4.1
					c1.2-1.1,1.9-2.6,2.1-4.1c0.3-2.2-0.3-4.7-1.7-7.3c-0.6-1.1-0.9-1.6-1.5-2.7c0.9-0.5,1.3-0.8,2.2-1.3
					c13.4,24.4,23.9,49.5,32.3,76c-9,2.7-17.9,5.5-26.9,8.2c-0.3-1-0.5-1.5-0.8-2.5c6.2-3.3,10.3-6.7,12.3-10.1
					c2-3.4,3-7.5,2.7-12.4c-0.1-2.9-1.5-7.8-4.3-14.7C715.9,267.4,715.1,265.5,713.5,261.9z"/>
			</g>
		</g>
	</g>
</g>
<g id="Layer_5" class="st40">
</g>
<g id="Layer_6">
	<path class="st1" d="M409,220.5c0-4.8-3.9-8.6-8.6-8.6c-4.8,0-8.6,3.9-8.6,8.6s3.9,8.6,8.6,8.6C405.1,229.1,409,225.2,409,220.5z"
		/>
	<path class="st1" d="M220.4,396.1c4.8,0,8.6-3.9,8.6-8.6s-3.9-8.6-8.6-8.6c-4.8,0-8.6,3.9-8.6,8.6S215.6,396.1,220.4,396.1z"/>
	<path class="st1" d="M565.8,381.5c0,4.8,3.9,8.6,8.6,8.6c4.8,0,8.6-3.9,8.6-8.6s-3.9-8.6-8.6-8.6
		C569.6,372.9,565.8,376.7,565.8,381.5z"/>
	<text transform="matrix(1 0 0 1 359.0192 586.1394)" class="st1 st42 st43">1924</text>
</g>
<g id="Layer_3">
	<g>
		<path class="st1" d="M237.1,445.5l-1.5-6.9l-23.5,5.2l-0.7-3.3l23.5-5.2l-1.5-6.9l2.8-0.6l3.8,17.2L237.1,445.5z"/>
		<path class="st1" d="M233,472.6l-1.9-4.4l-10.1,4.3l-1.3-3.1l24.9-10.6l3,7c1,2.4,1.2,4.5,0.5,6.3c-0.7,1.8-2.3,3.2-4.8,4.3
			c-1.5,0.7-3,0.9-4.5,0.7c-1.4-0.2-2.7-0.8-3.8-1.8l-8.5,9.3l-0.2,0.1l-1.4-3.4L233,472.6z M233.8,467.1l1.6,3.8
			c0.6,1.3,1.4,2.2,2.6,2.6c1.2,0.4,2.5,0.3,3.9-0.3c3.2-1.4,4.2-3.5,2.9-6.4l-1.6-3.8L233.8,467.1z"/>
		<path class="st1" d="M267,499.9l-15.9,10.7c-2.1,1.4-4.2,1.9-6.2,1.5s-3.8-1.7-5.2-3.8c-1.5-2.2-2-4.3-1.7-6.3
			c0.4-2,1.7-3.7,3.8-5.2l15.9-10.7l1.9,2.8l-15.8,10.7c-1.5,1-2.4,2.1-2.7,3.2c-0.3,1.1,0,2.4,1,3.9c1,1.4,2,2.2,3.2,2.4
			c1.2,0.1,2.5-0.3,4-1.3l15.8-10.7L267,499.9z"/>
		<path class="st1" d="M286.3,525.3l-5-5l-17.1,17l-2.4-2.4l17.1-17l-5-5l2.1-2.1l12.4,12.5L286.3,525.3z"/>
		<path class="st1" d="M299.1,564.9l-2.8-1.9l7-10.3l-9-6.1l-7,10.3l-2.8-1.9l15.1-22.4l2.8,1.9l-6.5,9.6l9,6.1l6.5-9.6l2.8,1.9
			L299.1,564.9z"/>
		<path class="st1" d="M482,561l-8.7,4l4,8.7l10.1-4.7l1.2,2.6l-13.2,6.1l-11.4-24.5l13-6.1l1.2,2.6l-9.9,4.6l3.7,7.9l8.7-4L482,561
			z"/>
		<path class="st1" d="M492,550.4l-1.1-11.5l3.4-2.1l1,15.1l13.2,7.9l-3.4,2.1l-9.9-6.3l1.1,11.7l-3.4,2.1l-1-15.4l-13-7.7l3.4-2.1
			L492,550.4z"/>
		<path class="st1" d="M521.1,539.3c1.7,2.4,2.4,4.6,2.2,6.7c-0.2,2.1-1.4,4-3.5,5.7c-2.1,1.7-4.5,2.2-7,1.6
			c-2.5-0.6-4.9-2.3-7.1-5.1l-3-3.8c-2.2-2.8-3.3-5.4-3.2-8.1c0-2.6,1.1-4.8,3.4-6.6c2-1.6,4.1-2.3,6.2-1.9c2.1,0.3,4.1,1.6,6,3.8
			l-2.7,2.1c-1.5-1.6-2.8-2.6-4-2.8c-1.2-0.3-2.4,0.1-3.7,1.1c-1.4,1.1-2.1,2.6-2,4.3c0.1,1.7,1,3.7,2.8,5.9l3.1,3.9
			c1.7,2.1,3.4,3.5,5,4.1c1.6,0.6,3.1,0.3,4.5-0.8c1.4-1.1,2.1-2.2,2.2-3.4c0.1-1.2-0.5-2.7-1.8-4.6L521.1,539.3z"/>
		<path class="st1" d="M531.6,523.6l-6.8,6.7l6.8,6.8l7.9-7.9l2.1,2.1l-10.3,10.3l-19.1-19.1l10.2-10.1l2.1,2.1l-7.8,7.7l6.1,6.2
			l6.8-6.7L531.6,523.6z"/>
		<path class="st1" d="M545.4,522.2l6.7-8.2l2.3,1.8l-8.8,10.9l-21-17l2.2-2.6L545.4,522.2z"/>
		<path class="st1" d="M557.1,506.7l5.8-8.9l2.4,1.6l-7.7,11.7l-22.6-14.8l1.9-2.9L557.1,506.7z"/>
		<path class="st1" d="M563.1,477.1l-4.4,8.5l8.5,4.4l5.1-9.9l2.6,1.3l-6.7,12.9l-24-12.4l6.6-12.7l2.6,1.3l-5,9.7l7.7,4l4.4-8.5
			L563.1,477.1z"/>
		<path class="st1" d="M583.7,459.1l-1.2,3.2l-23.3,2.9l19.5,7.3l-1.2,3.2l-25.3-9.4l1.2-3.2l23.4-2.9l-19.6-7.3l1.2-3.2
			L583.7,459.1z"/>
		<path class="st1" d="M581.4,432.9c2.8,0.8,4.8,2.1,5.9,3.9c1.2,1.8,1.4,4,0.8,6.6c-0.6,2.6-2.1,4.5-4.5,5.6s-5.3,1.2-8.7,0.4
			l-4.8-1.1c-3.4-0.8-5.9-2.2-7.6-4.3c-1.6-2.1-2.1-4.5-1.5-7.2c0.6-2.5,1.8-4.3,3.6-5.4c1.8-1,4.2-1.3,7.1-0.8l-0.8,3.3
			c-2.2-0.4-3.8-0.3-4.9,0.3c-1.1,0.5-1.8,1.6-2.2,3.2c-0.4,1.8,0,3.3,1.1,4.6c1.2,1.3,3.1,2.2,5.8,2.9l4.8,1.1
			c2.7,0.6,4.8,0.6,6.4,0.1c1.6-0.6,2.6-1.7,3-3.4c0.4-1.7,0.3-3.1-0.4-4c-0.7-1-2.1-1.8-4.3-2.5L581.4,432.9z"/>
		<path class="st1" d="M579.8,414.1l-1.1,9.5l9.5,1.1l1.2-11.1l2.9,0.3l-1.6,14.4l-26.8-3l1.6-14.3l2.9,0.3l-1.2,10.9l8.6,1l1.1-9.5
			L579.8,414.1z"/>
	</g>
	<g>
		<path class="st38" d="M471.4,315.9c-0.1,32.6,0.1,65.3,0.2,97.9c0,15.8,0,31.6,0,47.4c0,1.6,0.4,2.2,2.1,2.1
			c3.4-0.1,6.8-0.3,10.1-0.8c12-2,21.7-7.5,28-18.2c4.2-7.3,6.7-15,6.7-23.7c-0.2-35.1-0.1-70.2-0.1-105.3c0-1.3,0-2.5-0.1-3.8
			c-0.8-14.7-11.2-27.4-25.2-30.7c-1.1-0.3-2.2-0.5-3.3-0.5c-13.1,0-26.2,0-39.7,0c2.5,1.9,4.6,3.6,6.8,5.2
			C466.9,293.1,471.4,303.3,471.4,315.9z"/>
		<path class="st38" d="M281,342.1c0,1.7,0,3.4,0,5.7c2.2-2.9,4-5.2,5.8-7.6c7.3-9.5,17.2-13.7,29-13.7c48.5-0.1,97-0.2,145.5-0.3
			c0.3,0,0.7,0,1,0c0.9,0.1,1.3-0.3,1.3-1.3c-0.1-1.7,0-3.5-0.1-5.2c-1-19.3-10.9-32.3-29-38.3c-3-1-5.9-2-9.1-2
			c-36.7,0-73.4,0-110.1,0c-2.5,0-4.9,0.2-7.4,0.6c-16.3,2.9-27.4,17.6-26.9,31.9C281.3,322,281,332.1,281,342.1z"/>
		<path class="st38" d="M327.7,484.1c0-48.3-0.1-96.6-0.1-144.9c0-2-0.6-2.4-2.5-2.3c-9.1,0.4-17.8,2.7-25.7,7.3
			c-12.2,7.1-18.8,17.2-18.7,31.8c0.2,36.3,0.1,72.6,0.1,108.9c0,1.3,0,2.5,0.1,3.8c0.8,15.6,12.7,28.9,28,30.9
			c5.1,0.7,10.3,0.2,15.4,0.2c8.1,0,16.2,0,24.4,0c0.1-0.1,0.1-0.3,0.2-0.4c-2-1.5-4-3-6-4.5C332.4,507.1,327.7,496.9,327.7,484.1z"
			/>
		<path class="st38" d="M483.7,472.9c-32.5,0.1-64.9,0.2-97.4,0.3c-15.9,0-31.7,0-47.6,0.1c-0.9,0-2-0.5-2.1,1.3
			c0,7.7,1,15.3,4.2,22.4c5,11,14,17.3,25.1,21.1c3.9,1.3,7.9,2,12.1,2c34.9-0.1,69.8,0,104.8-0.1c2.1,0,4.1-0.1,6.2-0.3
			c16.3-1.4,29.2-15.6,29.2-31.8c0-11.3,0-22.5,0-33.8c0-0.6,0-1.3,0-2.5c-2.4,3-4.3,5.6-6.3,8.2
			C504.8,468.9,495.2,472.9,483.7,472.9z"/>
	</g>
	<g>
		<path class="st1" d="M342.7,397.7c4.9-0.1,9.7-0.1,14.6,0c1.5,0,2-0.4,2.1-1.9c0.8-16,8.9-27.3,22.6-35c1.1-0.6,1.6-0.5,2,0.7
			c0.7,1.7,1.6,3.4,2.7,5.5c2.4-6.5,4.6-12.6,6.9-18.7c0.2-0.6,0-1-0.5-1.3c-5.1-3.2-10.3-6.3-15.6-9.6c-0.1,0.5-0.2,0.6-0.2,0.7
			c0,1.4-0.1,2.8,0,4.2c0.2,1.8-0.4,2.6-2.1,3.4c-22.2,9.5-32.8,26.8-34,50.5C341,397.3,341.4,397.7,342.7,397.7z"/>
		<path class="st1" d="M439.4,381.4c0.7,1.1,0.4,1.6-0.7,2c-1.8,0.7-3.5,1.6-5.7,2.7c6.6,2.4,12.6,4.6,18.7,6.9
			c0.6,0.2,1,0.1,1.3-0.4c3.1-5.2,6.2-10.4,9.5-15.9c-2.2,0-3.9-0.1-5.6,0c-1.2,0.1-1.8-0.3-2.2-1.4c-1.8-4.4-4.1-8.5-6.8-12.4
			c-10.8-15.2-26.2-21.3-44.2-22.3c-1.2-0.1-1.3,0.5-1.3,1.4c0,5,0.1,10,0,15c0,1.7,0.5,2.1,2.1,2.2
			C420.3,359.9,431.6,367.9,439.4,381.4z"/>
		<path class="st1" d="M396.4,439.6c-16.2-0.8-27.5-9.1-35.4-22.8c-0.5-0.9-0.4-1.3,0.6-1.7c1.9-0.8,3.7-1.7,6-2.7
			c-6.6-2.3-12.7-4.4-18.9-6.6c-0.8-0.3-1.2-0.1-1.6,0.6c-3,5.1-6.1,10.2-9.2,15.4c0.4,0.2,0.5,0.3,0.6,0.3c1.5,0,2.9,0.1,4.4,0
			c1.7-0.2,2.5,0.4,3.2,2.1c3.8,9,9.3,16.8,17.1,22.7c9.9,7.5,21.4,10.5,33.6,11.2c1.4,0.1,1.3-0.7,1.3-1.6c0-5,0-10,0-15
			C398.1,440.1,397.7,439.7,396.4,439.6z"/>
		<path class="st1" d="M457.1,402.9c-4.6,0-9.2,0.1-13.8-0.1c-2.1-0.1-2.7,0.5-2.9,2.7c-0.9,15.8-9.4,26.7-22.7,34.4
			c-0.9,0.5-1.4,0.4-1.8-0.6c-0.8-1.8-1.7-3.6-2.7-5.9c-2.3,6.7-4.4,12.8-6.6,18.9c-0.4,1.1,0.3,1.3,0.9,1.6c4.7,2.8,9.4,5.6,14,8.4
			c1.3,0.8,1.4,0.2,1.4-0.9c0-1.3,0.1-2.5,0-3.8c-0.2-1.5,0.5-2.2,1.8-2.8c8.4-3.6,15.7-8.6,21.6-15.7c8.4-10.2,11.6-22.3,12.3-35.2
			C458.7,402.8,457.9,402.9,457.1,402.9z"/>
	</g>
	<path class="st38" d="M417.5,399.8c-0.1,9.8-8.1,17.8-17.7,17.7c-9.7-0.1-17.7-8.2-17.7-17.8c0-9.6,8.1-17.6,17.9-17.5
		C409.7,382.2,417.6,390.1,417.5,399.8z"/>
	<path class="st0" d="M408.4,400.1c0,4.8-3.8,8.8-8.4,8.8c-4.7,0-8.8-4.1-8.8-8.8c0-4.5,4-8.4,8.7-8.4
		C404.6,391.7,408.4,395.4,408.4,400.1z"/>
	<g>
		<path class="st1" d="M234.3,339.8l-1.6,4.6l10.5,3.8l-1.2,3.3l-26-9.3l2.6-7.3c0.9-2.5,2.3-4.2,4.1-5.1c1.8-0.8,4-0.8,6.5,0.1
			c1.6,0.6,2.9,1.4,3.8,2.6c0.9,1.1,1.5,2.5,1.6,4l12.9-1.1l0.2,0.1l-1.3,3.5L234.3,339.8z M229.8,343.3l1.4-4
			c0.5-1.4,0.4-2.6-0.1-3.8c-0.6-1.1-1.6-2-3.1-2.5c-3.3-1.2-5.6-0.3-6.6,2.7l-1.4,3.9L229.8,343.3z"/>
		<path class="st1" d="M243.5,315.3l-4.4,8.7l8.8,4.4l5.1-10.2l2.7,1.3l-6.6,13.3l-24.7-12.3l6.5-13.1l2.7,1.3l-5,10l8,4l4.4-8.7
			L243.5,315.3z"/>
		<path class="st1" d="M256.9,311.8l5.9-9.1l2.5,1.6l-7.8,12l-23.2-15l1.9-2.9L256.9,311.8z"/>
		<path class="st1" d="M265.8,283.3l-6.2,7.6l7.6,6.2l7.2-8.8l2.3,1.9l-9.4,11.5l-21.5-17.4l9.2-11.4l2.3,1.9l-7.1,8.7l6.9,5.6
			l6.2-7.6L265.8,283.3z"/>
		<path class="st1" d="M281.2,278l-11-20.4l2.7-2.7l13.1,25.8l-2.2,2.1L258.4,269l2.7-2.6L281.2,278z"/>
		<path class="st1" d="M299.3,260.3l-7.4,5.7l2.7,7.1l-2.8,2.2l-9.7-27.4l2.4-1.8l23.8,16.6l-2.8,2.2L299.3,260.3z M290.8,263l6-4.6
			l-10.6-7.7L290.8,263z"/>
		<path class="st1" d="M326.4,252.2l-3,1.7l-20.1-13.1l10.5,18.5l-3,1.7l-13.6-24l3-1.7l20.2,13.1l-10.5-18.6l3-1.7L326.4,252.2z"/>
		<path class="st1" d="M343.9,235.4c1,2.8,1,5.2,0.2,7.2c-0.8,2-2.5,3.5-5.1,4.6c-2.6,1-5,0.9-7.3-0.5c-2.3-1.3-4.1-3.7-5.5-7
			l-1.9-4.7c-1.3-3.3-1.6-6.3-0.8-8.8c0.8-2.6,2.5-4.4,5.2-5.5c2.5-1,4.7-1,6.6-0.1c1.9,0.9,3.5,2.8,4.8,5.5l-3.3,1.3
			c-1-2-2-3.3-3.1-3.9c-1.1-0.6-2.4-0.6-3.9,0c-1.7,0.7-2.8,1.9-3.2,3.7c-0.4,1.7-0.1,3.9,1,6.6l1.9,4.7c1,2.6,2.3,4.4,3.7,5.4
			c1.4,1,3,1.2,4.7,0.5c1.7-0.7,2.7-1.6,3.1-2.7c0.4-1.1,0.3-2.8-0.4-5L343.9,235.4z"/>
		<path class="st1" d="M360.4,226.7l-9.4,2.5l2.5,9.5l11-2.9l0.8,2.9l-14.4,3.8l-7.1-26.7L358,212l0.8,2.9l-10.8,2.9l2.3,8.6
			l9.4-2.5L360.4,226.7z"/>
		<path class="st1" d="M448.8,242.6l-3.3-1l7.9-26.5l3.3,1L448.8,242.6z"/>
		<path class="st1" d="M470.8,250.9l-3.2-1.3l-2.2-23.9l-8.1,19.7l-3.2-1.3l10.5-25.6l3.2,1.3l2.2,24l8.1-19.8l3.2,1.3L470.8,250.9z
			"/>
		<path class="st1" d="M501.1,239.6l-6.3-3.6l-12.2,21.4l-3-1.7l12.2-21.4l-6.3-3.6l1.5-2.6l15.6,8.9L501.1,239.6z"/>
		<path class="st1" d="M509.9,260.4l-7.9-5.8l-5.8,7.9l9.2,6.7l-1.8,2.4l-12-8.8l16.3-22.3l11.8,8.6l-1.8,2.4l-9-6.6l-5.2,7.2
			l7.9,5.8L509.9,260.4z"/>
		<path class="st1" d="M521.5,283.3l-1,0.1c-2.7,0.3-5.2-0.7-7.7-3c-2.2-2-3.2-4.4-3.1-7c0.1-2.6,1.4-5.2,3.8-7.9l3.7-4
			c2.6-2.8,5.2-4.4,7.6-4.8c2.4-0.3,4.8,0.5,7.1,2.6c1.9,1.8,2.9,3.7,3,5.8c0.1,2.1-0.7,4.2-2.5,6.3l-2.5-2.4
			c1.1-1.3,1.6-2.7,1.7-3.9c0.1-1.3-0.5-2.5-1.7-3.6c-1.4-1.4-3-1.9-4.5-1.6c-1.6,0.3-3.3,1.5-5.3,3.5l-3.9,4.1c-1.9,2-3,4-3.2,5.8
			c-0.2,1.8,0.4,3.4,1.8,4.8c1.4,1.3,2.7,1.9,4,1.9l0.7,0l4.3-4.6l-3.7-3.5l2-2.2l6.2,5.8L521.5,283.3z"/>
		<path class="st1" d="M536.3,288.7l-3.1-3.7l-8.6,7.1l-2.2-2.7l21.3-17.6l4.9,6c1.7,2.1,2.5,4.1,2.3,6.1s-1.3,3.8-3.4,5.6
			c-1.3,1.1-2.7,1.7-4.2,2c-1.5,0.2-2.9,0-4.3-0.6l-5.6,11.6l-0.2,0.1l-2.4-2.9L536.3,288.7z M535.5,283.1l2.7,3.2
			c0.9,1.1,2,1.7,3.3,1.8c1.3,0.1,2.5-0.4,3.7-1.4c2.7-2.3,3.1-4.6,1-7.1l-2.7-3.2L535.5,283.1z"/>
		<path class="st1" d="M536.8,308.2l-2-2.9l22.7-15.7l2,2.9L536.8,308.2z"/>
		<path class="st1" d="M569.1,314.1l-3.6-6.3L544.1,320l-1.7-3l21.4-12.2l-3.6-6.3l2.6-1.5l8.9,15.6L569.1,314.1z"/>
		<path class="st1" d="M564.7,330.8l15-0.2l1.5,3.6l-19-0.5l-9.5,4l-1.3-3.2l9.5-4l12.9-14l1.5,3.6L564.7,330.8z"/>
	</g>
</g>
<g id="Guides">
</g>
</svg>
